<?xml version="1.0" encoding="UTF-8" standalone="no"?>
<svg
   xmlns:dc="http://purl.org/dc/elements/1.1/"
   xmlns:cc="http://creativecommons.org/ns#"
   xmlns:rdf="http://www.w3.org/1999/02/22-rdf-syntax-ns#"
   xmlns:svg="http://www.w3.org/2000/svg"
   xmlns="http://www.w3.org/2000/svg"
   height="94.05"
   width="93.79"
   version="1.1"
   id="svg2">
  <metadata
     id="metadata21">
    <rdf:RDF>
      <cc:Work
         rdf:about="">
        <dc:format>image/svg+xml</dc:format>
        <dc:type
           rdf:resource="http://purl.org/dc/dcmitype/StillImage" />
        <dc:title></dc:title>
      </cc:Work>
    </rdf:RDF>
  </metadata>
  <defs
     id="defs19">
    <pattern
       y="0"
       x="0"
       height="6"
       width="6"
       patternUnits="userSpaceOnUse"
       id="EMFhbasepattern" />
    <style
       id="style6">
        .rotate {
	        -webkit-animation: rotation 60s infinite linear;
			-moz-animation: rotation 60s infinite linear;
			-o-animation: rotation 60s infinite linear;
			animation: rotation 60s infinite linear;
		    transform-origin: 50% 50%;
		    -webkit-transform-origin: 50% 50%;
		    -moz-transform-origin: 50% 50%;
        }
        
        @-webkit-keyframes rotation {
		    from {-webkit-transform: rotate(0deg);}
		    to   {-webkit-transform: rotate(359deg);}
		}
		@-moz-keyframes rotation {
		    from {-moz-transform: rotate(0deg);}
		    to   {-moz-transform: rotate(359deg);}
		}
		@-o-keyframes rotation {
		    from {-o-transform: rotate(0deg);}
		    to   {-o-transform: rotate(359deg);}
		}
		@keyframes rotation {
		    from {transform: rotate(0deg);}
		    to   {transform: rotate(359deg);}
		}
    </style>
  </defs>
  <g
     transform="translate(1.112,-7.077)"
     id="g410">
    <g
       class="rotate"
       id="canvas">
      <path
         style="fill:#d1d4d6;fill-opacity:1;stroke:#000000;stroke-width:1.6;stroke-miterlimit:4;stroke-dasharray:none;stroke-opacity:1"
         d="m 52.86,8.195 -7.6,5.505 -7.6,-5.305 -5.4,7.605 -8.9,-2.5 -2.51,8.9 -9.3,0.6 0.4,9.2 -8.383,3.5 3.39,8.7 -6.9516,6.1 5.9816,7.1 -4.62,8 7.99,4.7 -1.8,9.2 8.893,1.8 1.3,9.2 9.11,-1.1 4.2,8.2 8.4,-4.1 6.6,6.5 6.6,-6.6 8.4,4 4,-8.4 9.3,1 1.1,-9.2 9.1,-2.1 -2,-9 7.9,-4.9 -4.7,-8 5.8,-7.2 -7.1,-5.9 3.3,-8.7 -8.7,-3.4 0.3,-9.3 -9.3,-0.3 -2.8,-8.9 -8.9,2.7 z"
         id="path414" />
      <path
         style="fill:#33302e"
         d="m 40.46,87.1 5.6,5.4 5.5,-5.5 7,3.3 3.4,-7 7.7,0.8 1,-7.7 7.6,-1.7 -1.7,-7.6 6.7,-4.1 -4,-6.7 4.9,-6 -5.9,-5 2.7,-7.3 -7.3,-2.8 0.2,-7.8 -7.8,-0.3 -2.3,-7.4 -7.5,2.2 -4.6,-6.2 -6.3,4.5 -6.4,-4.4 -4.5,6.3 -7.5,-2.1 -2.2,7.5 -7.71,0.4 0.4,7.8 -7.2,2.9 2.8,7.3 -5.593,5.1 4.793,5.9 -3.693,6.8 6.493,3.9 -1.5,7.7 7.7,1.6 0.91,7.7 7.8,-1 3.5,6.9 z m 18.5,4.3 -7.3,-3.4 -5.6,5.7 -5.8,-5.6 -7.2,3.6 -3.6,-7.2 -7.91,1 -1.1,-7.9 -7.9,-1.6 1.6,-7.9 L 7.457,64 11.25,57 6.207,50.9 12.05,45.6 9.357,38.2 l 7.193,-3.1 -0.4,-8 7.91,-0.4 2.3,-7.7 7.7,2.1 4.7,-6.5 6.6,4.5 6.5,-4.6 4.8,6.4 7.7,-2.3 2.4,7.7 8,0.3 -0.2,8 7.5,2.9 -2.8,7.5 6.1,5.2 -5.1,6.2 4.1,6.9 -6.8,4.2 1.7,7.8 -7.8,1.8 -1,8 -8,-0.9 z"
         id="innerPath" />
      <path
         id="path5235-4"
         d="m 48.86,90.2 c 0.4,-0.5 0.7,0.7 0,0 z M 20.47,89 c 0.83,-0.8 0.11,0.9 0,0 z m 1.1,-0.4 c 0.59,-1 0.19,0.8 0,0 z m 13.49,-3 c 0.5,-1 2.9,-1.5 0.6,0 l -0.3,0.2 -0.3,-0.2 z m -0.2,-0.8 c 0.7,-1.2 -0.3,0.9 0,0 z m -1.2,-1.1 c 0.5,-0.9 0.2,0.8 0,0 z M 18.57,83 c -0.77,-1.2 0.94,0.4 0,0 z m 38.69,-0.3 c 3.5,-0.7 -2.1,0.9 0,0 z m -14.2,-0.6 c 0.5,-1.3 0.7,0.7 0,0 z m 15.5,-0.6 c 1.6,-1.6 -0.7,1.6 0,0 z M 16.37,80.4 c 0.75,-1.1 0.82,0.8 0,0 z m 31.59,-0.3 c 0.3,-0.3 -1.5,-0.6 0.1,-0.8 1.1,1.1 -0.2,-2.7 1,-1 0.7,0.9 -1,2.2 -1.1,1.8 z M 59.26,80 c 0.5,-1 0.2,0.8 0,0 z M 16.97,79.4 c 0.87,-1.3 -0.38,1.3 0,0 z m -6.1,-0.2 c -2.563,-0.3 3.21,-2.9 -0.1,-1.1 -0.7,1.8 3.06,-0.6 0.94,1.2 -0.24,0.2 -0.71,0.2 -0.86,-0.1 z m 4,-1.6 c 1.29,-0.8 -0.57,0.7 0,0 z m -0.6,-0.3 c 1.06,-0.9 -0.39,1 0,0 z m 17.59,-0.2 c 0.6,-0.9 1.3,-0.7 0,0 z M 19.37,76.5 c 0.34,-1.2 1.15,0.2 0,0 z m 0.9,-0.9 c 0.45,-1.1 0.31,1.4 0,0 z m 1.39,-1 c 0.5,-0.4 0.6,0.6 0,0 z m -4.49,-0.2 c 1.26,-0.1 -0.15,0.5 0,0 z m 22.09,-0.6 c 0.6,-1.1 1.4,1.2 0,0.1 z M 11.57,73.4 c 1.79,-0.9 0.28,0.7 0,0 z m -0.9,-0.3 c 0,-1.4 0.69,1.1 0,0 z m 2.6,0.1 c 0.63,-1.8 1.06,0.4 0,0 z m 17.69,-0.6 c 1.2,-0.1 -0.4,0.3 0,0 z M 12.37,71.9 c 1.49,-0.2 -0.62,0.4 0,0 z m 18.09,0 c 0.5,-1.3 1.6,-0.5 0,0 z M 19.87,71.2 c 0.91,-2 1.61,0.7 0,0 z m -9.1,-0.1 c 0.72,-0.4 1.19,-2.5 1.11,-0.4 -0.16,0.2 -1.02,1 -1.11,0.4 z m 4.6,-0.9 c 1.04,-2 0.15,1.3 0,0 z m 3.8,0.2 c -0.82,-1.7 1.69,-0.3 0,0 z M 9.699,68.6 c 0.1,-1.7 1.811,-2.3 0.381,-0.2 0.11,0.9 -0.346,1.7 -0.381,0.2 z m 4.271,0 c 0.45,-1.3 0.83,0.5 0,0 z m 1.5,-0.4 c -1.24,-1.6 1.66,0.3 0,0 z m 14.09,-1.1 c 0.9,-1 0.7,0.4 0,0 z M 8.177,66.7 c 1.788,-0.9 -0.78,0.7 0,0 z m 9.093,-0.2 c 0.46,-1.3 0.68,0.7 0,0 z M 39.76,66 c 1.1,-3.2 -0.5,2.4 0,0 z M 13.17,65.5 c 0.45,-0.9 1.28,1.1 0,0 z M 8.877,64.6 c 0.39,-0.5 0.51,0.7 0,0 z M 40.26,64.4 c 1.2,-0.2 0.1,0.5 0,0 z m -6.9,-0.5 c 1.4,-0.3 2.4,-2.2 0.9,0 -0.1,0.1 -0.8,0.4 -0.9,0 z m -0.8,-0.5 c 1.3,-0.3 -0.2,-2.4 2.2,-1.9 0.7,0.6 -1.8,2.7 -2.2,1.9 z M 15.57,63.3 c 1.41,-0.3 0.1,0.4 0,0 z m 1,0 c 0.37,-1.5 1.32,-0.9 0,0 z m 8.59,-0.1 c 0.6,-0.9 0.6,0.8 0,0 z m -5.19,-0.7 c 2.29,-0.7 -0.25,0.8 0,0 z m 15.29,-0.3 c 0.9,-1.1 -0.3,1 0,0 z M 15.97,62.1 c 0,-1.2 1.15,0 0,0 z m -5.5,-0.4 c 1.55,-2.8 1.38,0.8 0,0 z m 2.4,0.1 c 0.72,-1.2 0.93,0.4 0,0 z m 6.2,0.1 c -0.92,-1.2 0.92,0.1 0,0 z m -2.1,-1 c 0.42,-1.1 0.78,1.4 0,0 z m -1.1,-0.2 c 0.77,-0.7 0.35,1.2 0,0 z m 18.39,0.2 c 0.9,-1.3 1.1,0.7 0,0 z M 13.07,60.6 c 2.36,-2.3 1.27,0.3 0,0 z M 7.377,60.4 c 0.82,-0.5 0.56,0.8 0,0 z m 12.993,0 c 0.84,-0.7 0.1,0.7 0,0 z m -1.6,-0.8 c 3.29,-1.5 -1.25,1.7 0,0 z m 3.69,-0.1 c 0.9,-0.7 0.2,0.8 0,0 z m -7.69,-1.1 c 2.56,-0.7 -0.81,1.3 0,0 z m -4,-0.2 c 2.19,-1.4 -0.854,1.2 0,0 z m 12.29,-0.7 c 0.4,-1 0.1,1 0,0 z m -1.4,-1.2 c 0.4,-0.8 0.1,1.1 0,0 z M 8.477,56.1 c -1.16,-1.3 3.663,-0.6 1.593,-2.2 0.11,-1.8 -0.511,1.6 -0.793,-0.6 1.373,-0.5 2.503,-1 1.393,-2.3 0.46,-2.6 6.09,-1.5 2.81,-0.9 -1.03,2.3 -2.07,5.1 -4.403,5.9 0.1,0.3 -0.52,0.3 -0.6,0.1 z M 19.27,55.9 c 0.36,-1.2 3.29,-1.9 1.04,-0.3 -0.18,0.4 -0.7,1 -1.04,0.3 z m -1.8,-0.7 c 0.58,-1.6 0.62,0.9 0,0 z m -6,-0.1 c 0.48,-1 0.3,0.7 0,0 z m 4.8,-0.1 c 0.18,-1.5 3.16,-2.5 1.35,-0.7 0,0.2 -1.7,1.6 -1.35,0.7 z m -3,-0.1 c 1.29,-2.4 1.75,-0.4 0,0 z M 8.377,53.7 c 0.86,-2.6 1.853,-0.9 0,0 z M 19.37,53.3 c -0.14,-1.5 1.15,-2 1.1,-0.5 1.29,0.4 -1.16,1.7 -1.1,0.5 z M 4.137,53.1 c 0.64,-2.1 0.63,2.2 0,0 z m 1,0.4 c 0.33,-1.1 0.43,0.4 0,0 z m 8.933,-0.8 c 1.16,-0.8 0,0.9 0,0 z M 7.377,52.4 c -0.88,-0.9 1.4,-1.7 1.67,-2.1 0.4,0.5 -1.64,3.3 -1.67,2.1 z m 10.493,0 c 0.29,-2.1 0.6,1 0,0 z m -0.9,-0.3 c 0.88,-1 0.18,0.9 0,0 z m 4.2,0.2 c 0.99,-1.6 2.59,-1 0.21,0 l -0.15,0.1 -0.1,-0.1 z m -4.5,-1.7 c 0.89,-0.7 0,0.9 0,0 z M 4.437,50.3 c -2,-0.5 0.65,-1.3 0.3,0.3 z m 29.123,0 c 0.5,-1.8 2.3,-2.1 0.3,-0.3 l -0.3,0.5 0,-0.2 z m -8.8,-0.4 c 2,-1.2 -0.6,0.7 0,0 z m -4.69,-0.3 c 0.96,-0.8 1.99,-0.4 0.2,0 z m -9.2,-0.5 c -0.1,-1.7 2.78,-1.4 0.41,-0.4 -0.32,0.2 0.2,1.4 -0.41,0.4 z m 1.5,-0.4 c 0.36,-2.1 1.75,0.6 0.3,0.3 l -0.64,0 0.34,-0.3 z m 10.99,0.1 c 1.1,-0.7 0.2,0.7 0,0 z M 8.877,47.6 c -0.21,-1.5 1.06,-2.2 0.5,-0.5 0.399,0.8 0,1.8 -0.5,0.5 z m 26.783,0.3 c -0.8,-1.1 1.9,0 0,0 z M 19.67,47.4 c 0.11,-1.8 3.29,-0.1 0.79,0.2 -0.26,0.1 -0.61,0 -0.79,-0.2 z M 6.937,47 c 1.53,-1.6 1.35,1 0,0 z M 26.56,46.8 c 1.3,-0.8 -0.6,1.2 0,0 z m 14.6,-0.2 c 0.9,-0.9 0.8,-0.4 0,0.1 z m -24.39,-1 c 0.63,-2.2 1.66,1.1 0,0 z m 1.9,-0.2 c 0.23,-0.8 0.1,1 0,0 z m 3.49,-0.5 c 1.5,-1.6 0.2,1.4 0,0 z m -1.69,-0.7 c 0.62,-2.7 0,2.5 0,0 z m 18.99,0.4 c 1.5,-1 -0.4,0.8 0,0 z M 12.37,44.3 c 0.81,-1.9 2.47,-0.1 1,-0.1 -0.23,-1.1 -1.04,0.9 -1,0.1 z M 8.777,43.9 c -2.05,-2.5 3.443,0.9 0,0 z M 21.76,43.8 c 0.4,-1.6 0.8,0.9 0,0 z m 1.4,-0.1 c 0.6,-0.8 1.3,-2.1 0.1,-1.1 0.4,-1.7 2,-4.3 2.8,-2.5 2.1,0 -0.6,2.9 -1.4,3 -0.6,-0.1 -1,0.8 -1.5,0.6 z m 3.3,-0.6 c -0.2,-2.4 1,0.9 0.1,0.4 l -0.1,-0.4 z M 10.17,42.9 c -0.24,-0.9 1.01,1 0,0 z m 10.3,-0.4 c 1.39,-3.7 1.19,1.3 0,0 z M 7.877,42.3 c -1.07,-1.9 1.12,-1 0,0 z m 3.793,-0.5 c 0.63,-1.7 0.61,1.3 0,0 z m 4.9,-0.1 c 1.53,-1.5 -0.41,1.3 0,0 z m -2.1,-0.1 c 0.52,-1.3 0.62,0.8 0,0 z m 3.9,0.1 c 0.45,-1 1.25,-3.1 1.6,-1.3 -0.32,0.3 -1.08,1.6 -1.6,1.3 z m 3.79,-0.6 c 0.9,-0.9 1.2,-3.5 1.3,-0.6 0.3,0.7 -1.2,1.2 -1.3,0.6 z m 5.6,-0.7 c 0.4,-1.6 0.4,0.5 0,0 z m 3.4,-0.1 c 1.5,-0.9 -0.3,1.1 0,0 z m -9.5,-0.4 c 0.9,-0.9 0.1,1 0,0 z m -4.29,-0.4 c 1.05,-0.7 0.1,0.7 0,0 z m 4.29,-0.7 c 0.5,-1.2 0.6,0.5 0,0 z m -1.59,-0.5 c 0.62,-0.8 0.1,0.9 0,0 z m 3.49,0 c 1.3,-1.8 1.8,0.8 0,0 z m 7.6,0.1 c 1.1,-0.2 -0.2,0.4 0,0 z M 8.377,37.8 c -2.02,-0.6 1.08,-1.3 0.42,0.5 -0.28,0.1 -0.44,-0.3 -0.42,-0.5 z m 7.293,0.1 c 0.46,-1 0.28,0.7 0,0 z m -1,-0.5 c 0.6,-0.9 0.46,0.8 0,0 z m 4.7,-0.2 c -0.24,-1.5 0.83,1.2 0,0 z m -5.3,-0.3 c 0.84,-0.7 0,0.9 0,0 z m 6.8,0 c 0,-1.7 1.59,0.2 0,0 z m -4.8,-0.2 c -0.41,-1.7 3.56,-2.2 1.06,-0.3 -0.21,0.5 -0.7,0.4 -1.06,0.3 z m 8.09,-0.3 c 1.6,-0.6 -0.8,0.9 0,0 z m -5.49,-0.2 c 0.86,-1.3 1.27,1.3 0,0 z m 7.39,-0.9 c 0.1,-1.9 0.6,1.1 0,0.5 z m 6.5,0.5 c 1.1,-1.5 1.9,-0.5 0,0 z m 11,-0.1 c 0.6,-0.4 0.3,0.8 0,0 z m -0.7,-0.4 c 0.6,-0.7 0.2,0.6 0,0 z m -15.7,-0.4 c -0.2,-1.6 2,-0.2 0,0 z m 19.5,-0.4 c 0.9,-0.8 0.2,1 0,0 z m -10.6,-0.2 c 1.3,-0.7 -0.7,0.9 0,0 z M 17.27,34.1 c 0.7,-0.8 0,0.9 0,0 z m 17.19,0.2 c 0.7,-0.8 1.6,0.5 0,0 z M 13.37,33.8 c 0.26,-0.8 0,0.9 0,0 z m 2,0.2 c 0.36,-1.5 1.02,-0.2 0,0 z m 10.39,-0.1 c 0.9,-0.7 0.1,0.7 0,0 z m 6.4,0 c 0.6,-0.7 0.2,0.6 0,0 z M 19.57,33.5 c 1.01,-1.5 -2.24,-0.1 0.18,-1.3 1.91,-1.1 2.61,0.7 1.02,0.5 0.2,0.6 -1.23,1.2 -1.2,0.8 z m 21.89,-0.1 c 0.5,-0.5 0.3,0.9 0,0 z m -8.4,-0.9 c 0.3,-1.1 0.2,1.2 0,0 z m -10.3,0.1 c -0.6,-1.8 1.5,0.6 0,0 z m 7.3,0 c 0.6,-2.4 0.5,0.4 0,0 z m 6.7,-0.3 c -0.5,-0.3 -1.3,-0.3 0.1,-0.5 1.3,-0.3 0.6,1.4 -0.1,0.5 z M 17.97,32.2 c 1.1,-1 -0.38,1 0,0 z m 15.79,-0.5 c 0.7,-1.7 3.8,-3.3 1,-1.1 -0.2,0.2 -0.6,1.3 -1,1.1 z m 1.3,-0.1 c 1.2,-1 0.5,0.7 0,0 z M 13.57,31.4 c 0.24,-1.1 0.63,0.3 0,0 z m 12.29,-0.1 c 0.6,-1.3 1.3,0.1 0,0 z m 11.2,-0.4 c 0.9,-1.1 1.3,0.9 0,0 z M 17.97,30.6 c -2.11,0.1 0.53,-2.3 0.3,-0.5 0.65,-0.5 -0.36,1.4 -0.3,0.5 z m 9.89,0.1 c 0.6,-1 0.1,0.8 0,0 z M 15.57,30.5 c -0.38,-1.7 2.06,0.5 0,0 z m 20.39,-0.2 c 1.4,-1.7 2.1,0.4 0,0 z M 13.57,29.5 c 0.66,-2.4 0.93,1.5 0,0 z m 17.19,-0.1 c 0.9,-1.1 2.2,-1.3 0.7,0.1 -0.1,-0.5 -0.8,0.6 -0.7,-0.1 z M 18.57,29.2 c 1.29,-0.6 -0.63,0.8 0,0 z m -3.9,-0.6 c 0.44,-1.2 0.63,0.9 0,0 z m 1.3,-0.2 c 0,-1.2 -4.36,-1.4 -2.24,-3.5 -0.52,1 1.3,0.5 0.84,0.4 -1.27,0 3.78,-1.6 1.32,0.3 -1.48,0.4 1.53,1.5 1.69,-0.1 1.22,1.5 -4.09,1.2 -1.41,2.1 1.82,1.2 0.13,0.6 -0.41,1.1 l 0.21,-0.3 z m 16.59,0.2 c 1.4,-1 0.8,-1.1 0.7,-2 1.7,0.7 0.5,2 -0.7,2 z m 2.8,0 c 0.4,-1.2 0.6,0.9 0,0 z m -12.1,-0.4 c 1.2,-0.6 2.5,0.3 0,0 z m 6.5,-0.3 c -0.4,-1.3 0.7,0.3 0,0 z m -9.29,-0.3 c 0.57,-0.5 0.57,0.9 0,0 z m 6.39,-0.2 c 1,-0.8 0.2,0.7 0,0 z m 8.9,-0.2 c 0.8,-1 0.2,0.8 0,0 z m -10.1,-0.6 c 1.8,-1.6 -1.1,1.7 0,0 z m -4,0 c 0.5,-1.2 0.4,1.2 0,0 z m -3.29,-0.1 c 0.49,-0.9 0.46,0.7 0,0 z m 12.59,-0.3 c 1.7,-1.6 -0.4,1.6 0,0 z m 10.6,0.3 c 0.2,-1 1.1,0.8 0,0 z m -5.8,-0.3 c 0.9,-1.3 -0.3,1 0,0 z m -1.4,-0.4 c 0.4,-1.3 2.3,-0.4 0,0 z M 19.27,25.5 c 0.26,-0.8 0.42,0.9 0,0 z m 6.99,-0.1 c -0.1,-1 1.6,-2 2.1,-2.8 2.3,-1.1 -0.7,2 0,2.7 -0.6,0.3 -1.4,0.3 -2.1,0.1 z m -5.99,-0.5 c 1.09,-1.1 0.28,1.2 0,0 z m 3.89,-0.7 c 0.2,-1.9 0.6,1 -0.1,0.4 z m 21.1,0 c 1.6,-1.8 -1.1,2.1 -0.1,0.1 z m -26.19,0 c 2.02,-1.8 1.5,0.9 0,0 z m 22.79,0 c 1.7,-1.4 -0.7,-1.8 -0.2,-2.9 -1,-1.6 1.5,0.4 1.7,1.2 1.3,-0.8 2,1.3 0.1,0.3 -0.8,0.1 -0.8,1.4 -1.6,1.4 z m 6.8,-0.3 c 1.9,-0.8 0.2,0.8 0,0 z m -5.4,-0.2 c 0.4,-1.2 0.6,0.9 0,0 z m 3.4,-0.7 c 1,-0.6 0.4,0.8 0,0 z m -23.1,-0.2 c 0.6,-2.1 1.4,0.4 0,0 z m 7.9,-0.3 c 1.5,-1.6 -1,1.7 0,0 z m 13.9,-0.1 c 0.6,-1.4 0.6,1 0,0 z m 1.3,-0.2 c -1.3,-0.6 2.5,-3.7 0.6,-0.8 0.3,0.3 -0.8,1.8 -0.6,0.8 z m -2.4,-0.6 c -1.7,-1.7 1.2,-0.8 0.5,0.1 z m -17,-0.3 c 0.7,-0.8 0,0.9 0,0 z m 22.1,0.1 c 0.3,-1.2 0.7,0.4 0,0 z m -13,-0.8 c 0.5,-0.9 1.2,0.2 0,0 z m 6.1,-0.8 c 0.9,-0.8 0.1,1.2 0,0 z m -1.5,-0.5 c 1.5,-2.1 -0.3,1.6 0,0 z m 0.9,-0.1 c 1.3,-0.7 -0.6,0.9 0,0 z m -1.4,-0.4 c 2,-2.6 -0.5,1.5 0,0 z m 3.2,-1.6 c 0.1,-1.5 0.6,1.2 0,0 z m -1.5,-0.8 c 1.8,-1.5 0.5,1.8 -0.4,0.6 0.1,-0.2 0.3,-0.4 0.4,-0.6 z m -17.1,0.1 c 0.2,-1.3 2.5,-1 0.2,0 l -0.2,0 z m 1.7,-0.4 c 0.6,-1.6 0.7,1 0,0 z m 8.6,-1.3 c 1,-0.5 0.8,1 0,0 z"
         style="fill:#000000" />
    </g>
    <g
       id="g4186"
       transform="matrix(1.063,0,0,1.063,-5.048,-4.418)">
      <path
         style="fill:#33302e;fill-opacity:1;fill-rule:nonzero;stroke:none"
         d="m 37.14,40.69 c -1.13,0 -1.76,0 -1.86,-1.36 -0.39,-2.15 1,-4.39 5.06,-4.96 0.7,0 2.82,0 4.47,-0.33 0.73,0 1.42,-0.33 1.82,-0.63 -0.33,0.86 -0.4,1.33 -0.63,5.13 0.56,-0.93 1.19,-1.19 1.75,-1.19 1.06,-0.33 1.92,0.33 2.12,1.46 0,1.32 -0.43,3.5 -0.33,4.33 0,0.4 0.33,0.63 0.76,0.63 0.63,0 0.89,-0.76 1.12,-1.66 l 0.6,0 c -0.46,2.78 -1.65,3.34 -2.48,3.44 -1.42,0.33 -2.05,-0.66 -2.18,-1.62 0,-1.12 0.33,-3.14 0,-4.2 0,-0.56 -0.33,-0.86 -0.7,-0.69 -0.56,0 -0.92,0.69 -0.99,1.52 0,1.42 -0.33,3.24 -0.33,5.46 l -2.38,0.33 0.76,-10.65 c -0.63,0 -1.39,0 -2.18,0 l -0.83,10.94 -2.25,0.33 0.79,-10.98 c -1.75,0.33 -3.17,1.19 -2.81,3.71 0.33,0.83 0.37,0.89 0.37,1.06 z M 54.9,43.2 c 0.63,0 1.42,-0.56 1.78,-1.12 0,1.82 -1.15,2.58 -2.48,2.81 -1.49,0 -2.58,-0.43 -2.87,-2.25 -0.34,-1.88 0.33,-5.89 3.57,-6.38 1.49,-0.33 1.98,0.49 2.05,1.35 0.33,1.82 -1.36,3.48 -3.31,3.91 0,0 0,0.36 0,0.43 0,1.06 0.56,1.32 1.13,1.25 z m 0.33,-6.08 c -0.83,0 -1.32,2.02 -1.52,3.64 1.32,-0.33 2.18,-1.69 1.95,-3.08 0,-0.36 0,-0.63 -0.43,-0.56 z"
         id="path4152" />
    </g>
    <g
       transform="matrix(0.99026,-0.1392,0.1392,0.99026,-268.6,-27.498)"
       style="font-size:10.34863px"
       id="text344-8">
      <path
         d="m 275.84,132.42 c -0.77,1.03 -1.95,1.67 -3.25,1.67 -1.6,0 -2,-1.07 -2,-2.6 0,-3.4 1.63,-7.78 3.47,-7.78 0.75,0 1.01,0.48 1.01,1.01 0,0.64 -0.36,1.34 -0.76,1.54 0.31,0.36 0.68,0.43 0.95,0.43 0.84,0 1.16,-0.65 1.16,-1.53 0,-1.62 -1.21,-2.24 -2.78,-2.24 -4.37,0 -5.81,5.65 -5.81,8.67 0,2.99 1.18,4.09 3.64,4.09 1.52,0 3.87,-0.86 4.75,-3.09 l -0.38,-0.17 z"
         style="font-size:16.65799px;font-family:'Lobster1.4';fill:#33302e"
         id="path5185" />
      <path
         d="m 280.57,129.39 c 0,1.06 -0.75,3.11 -0.75,4.25 0,0.94 0.52,1.88 1.97,1.88 0.88,0 2.16,-0.35 3.09,-3.08 l -0.69,0 c -0.37,0.86 -0.67,1.46 -1.4,1.46 -0.5,0 -0.67,-0.28 -0.67,-0.7 0,-0.93 0.8,-2.95 0.8,-4.3 0,-1.33 -0.78,-1.88 -1.85,-1.88 -0.52,0 -1.25,0.14 -1.95,0.94 l 0.9,-4.2 -2.46,0.33 -2.42,11.33 2.4,0 1.15,-5.42 c 0.1,-0.45 0.61,-1.46 1.26,-1.46 0.42,0 0.62,0.3 0.62,0.85 z"
         style="font-size:16.65799px;font-family:'Lobster1.4';fill:#33302e"
         id="path5187" />
      <path
         d="m 289.8,127.09 -0.19,0.88 0,-0.11 c 0,-0.49 -0.4,-0.85 -1.35,-0.85 -2.89,0 -4.28,3.58 -4.28,5.83 0,1.98 1.09,2.68 2.22,2.68 1.18,0 1.96,-0.77 2.48,-1.53 0.1,0.99 0.7,1.53 1.63,1.53 0.9,0 2.4,-0.37 3.35,-3.08 l -0.7,0 c -0.25,0.83 -0.7,1.56 -1.35,1.56 -0.46,0 -0.68,-0.25 -0.68,-0.71 0,-0.15 0,-0.32 0.1,-0.54 l 1.2,-5.66 -2.4,0 z m -1.02,0.95 c 0.53,0 0.68,0.43 0.68,0.63 l -0.8,3.77 c -0.2,0.96 -0.9,1.46 -1.38,1.46 -0.3,0 -0.83,0 -0.83,-1.3 0,-1.56 0.91,-4.56 2.33,-4.56 z"
         style="font-size:16.65799px;font-family:'Lobster1.4';fill:#33302e"
         id="path5189" />
      <path
         d="m 301.86,129.39 c 0,1.06 -0.75,3.11 -0.75,4.25 0,0.94 0.52,1.88 1.97,1.88 0.88,0 2.17,-0.35 3.1,-3.08 l -0.7,0 c -0.37,0.86 -0.67,1.46 -1.4,1.46 -0.5,0 -0.67,-0.28 -0.67,-0.7 0,-0.93 0.8,-2.95 0.8,-4.3 0,-1.33 -0.78,-1.88 -1.85,-1.88 -0.61,0 -1.51,0.19 -2.31,1.42 -0.19,-1.03 -0.84,-1.43 -1.72,-1.43 -0.58,0 -1.33,0.15 -2.03,0.95 l 0.18,-0.87 -2.4,0 -1.76,8.33 2.4,0 1.13,-5.35 c 0.25,-0.83 0.7,-1.55 1.35,-1.55 0.37,0 0.5,0.37 0.5,0.73 0,0.15 0,0.29 -0.1,0.42 l -1.22,5.75 2.4,0 1.13,-5.35 c 0.25,-0.83 0.7,-1.53 1.3,-1.53 0.4,0 0.6,0.3 0.6,0.85 z"
         style="font-size:16.65799px;font-family:'Lobster1.4';fill:#33302e"
         id="path5191" />
      <path
         d="m 306.74,126.47 -2.78,13.11 2.52,-0.6 0.86,-4.06 c 0.19,0.31 0.59,0.6 1.42,0.6 3.23,0 4.1,-3.63 4.1,-5.88 0,-1.98 -0.9,-2.63 -2.04,-2.63 -0.83,0 -1.46,0.3 -1.94,0.71 l 0.26,-1.25 -2.4,0 z m 1.5,7.6 c -0.38,0 -0.56,-0.2 -0.63,-0.38 l 0.98,-4.67 c 0.32,-0.53 0.79,-0.82 1.15,-0.82 0.3,0 0.83,0.1 0.83,1.39 0,1.56 -0.58,4.48 -2.33,4.48 z"
         style="font-size:16.65799px;font-family:'Lobster1.4';fill:#33302e"
         id="path5193" />
      <path
         d="m 314.75,124.87 c 0,0.74 0.58,1.32 1.32,1.32 0.73,0 1.33,-0.58 1.33,-1.32 0,-0.73 -0.6,-1.33 -1.33,-1.33 -0.74,0 -1.32,0.6 -1.32,1.33 z m -0.33,2.22 -1.13,5.35 c -0.1,0.4 -0.14,0.76 -0.14,1.08 0,1.4 0.79,2 1.79,2 0.89,0 2.54,-0.37 3.49,-3.08 l -0.7,0 c -0.25,0.83 -0.85,1.46 -1.5,1.46 -0.46,0 -0.68,-0.15 -0.68,-0.61 0,-0.15 0,-0.32 0.1,-0.54 l 1.2,-5.66 -2.4,0 z"
         style="font-size:16.65799px;font-family:'Lobster1.4';fill:#33302e"
         id="path5195" />
      <path
         d="m 322.07,126.94 c -3.43,0 -4.56,4 -4.56,5.91 0,1.9 1.12,2.63 2.67,2.63 2.04,0 3.71,-1.93 3.98,-5.01 1.21,-0.2 2.31,-0.7 2.95,-1.38 l -0.15,-0.45 c -0.72,0.5 -1.8,1 -2.57,1 -0.1,0 -0.12,0 -0.18,0 0,-1.74 -0.7,-2.66 -2.14,-2.66 z m -1.23,7.05 c -0.63,0 -0.85,-0.25 -0.85,-1.35 0,-1.64 1.03,-4.68 2.22,-4.68 0.43,0 0.6,0.26 0.63,0.96 -0.3,0.13 -0.52,0.43 -0.52,0.9 0,0.33 0.1,0.62 0.45,0.7 -0.26,1.97 -1.11,3.47 -1.93,3.47 z"
         style="font-size:16.65799px;font-family:'Lobster1.4';fill:#33302e"
         id="path5197" />
      <path
         d="m 329.86,129.39 c 0,1.06 -0.75,3.11 -0.75,4.25 0,0.94 0.4,1.88 1.68,1.88 0.89,0 1.69,-0.52 1.84,-1.72 -0.1,0.1 -0.27,0.1 -0.55,0.1 -0.5,0 -0.67,-0.28 -0.67,-0.7 0,-0.93 0.8,-2.95 0.8,-4.3 0,-1.33 -0.78,-1.88 -1.85,-1.88 -0.52,0 -1.25,0.14 -1.95,0.94 l 0.19,-0.87 -2.4,0 -1.77,8.33 2.4,0 1.13,-5.35 c 0.25,-0.83 0.7,-1.53 1.3,-1.53 0.4,0 0.6,0.3 0.6,0.85 z"
         style="font-size:16.65799px;font-family:'Lobster1.4';fill:#33302e"
         id="path5199" />
    </g>
  </g>
</svg>
