<?xml version="1.0" encoding="UTF-8" standalone="no"?>
<svg
   xmlns:dc="http://purl.org/dc/elements/1.1/"
   xmlns:cc="http://creativecommons.org/ns#"
   xmlns:rdf="http://www.w3.org/1999/02/22-rdf-syntax-ns#"
   xmlns:svg="http://www.w3.org/2000/svg"
   xmlns="http://www.w3.org/2000/svg"
   id="svg2"
   version="1.1"
   width="93.79"
   height="94.05">
  <metadata
     id="metadata21">
    <rdf:RDF>
      <cc:Work
         rdf:about="">
        <dc:format>image/svg+xml</dc:format>
        <dc:type
           rdf:resource="http://purl.org/dc/dcmitype/StillImage" />
        <dc:title></dc:title>
      </cc:Work>
    </rdf:RDF>
  </metadata>
  <defs
     id="defs19">
    <pattern
       id="EMFhbasepattern"
       patternUnits="userSpaceOnUse"
       width="6"
       height="6"
       x="0"
       y="0" />
    <style>
        .rotate {
	        -webkit-animation: rotation 60s infinite linear;
			-moz-animation: rotation 60s infinite linear;
			-o-animation: rotation 60s infinite linear;
			animation: rotation 60s infinite linear;
		    transform-origin: 50% 50%;
		    -webkit-transform-origin: 50% 50%;
		    -moz-transform-origin: 50% 50%;
        }
        
        @-webkit-keyframes rotation {
		    from {-webkit-transform: rotate(0deg);}
		    to   {-webkit-transform: rotate(359deg);}
		}
		@-moz-keyframes rotation {
		    from {-moz-transform: rotate(0deg);}
		    to   {-moz-transform: rotate(359deg);}
		}
		@-o-keyframes rotation {
		    from {-o-transform: rotate(0deg);}
		    to   {-o-transform: rotate(359deg);}
		}
		@keyframes rotation {
		    from {transform: rotate(0deg);}
		    to   {transform: rotate(359deg);}
		}
    </style>
  </defs>
  <g
     id="g410"
     transform="translate(1.112,-7.077)">
    <g id="canvas" class="rotate">
      <path
         id="path414"
         d="m 52.86,8.195 -7.6,5.505 -7.6,-5.305 -5.4,7.605 -8.9,-2.5 -2.51,8.9 -9.3,0.6 0.4,9.2 -8.383,3.5 3.39,8.7 -6.9516,6.1 5.9816,7.1 -4.62,8 7.99,4.7 -1.8,9.2 8.893,1.8 1.3,9.2 9.11,-1.1 4.2,8.2 8.4,-4.1 6.6,6.5 6.6,-6.6 8.4,4 4,-8.4 9.3,1 1.1,-9.2 9.1,-2.1 -2,-9 7.9,-4.9 -4.7,-8 5.8,-7.2 -7.1,-5.9 3.3,-8.7 -8.7,-3.4 0.3,-9.3 -9.3,-0.3 -2.8,-8.9 -8.9,2.7 z"
         style="fill:#d1d4d6;fill-opacity:1;stroke:#000000;stroke-width:1.6;stroke-miterlimit:4;stroke-dasharray:none;stroke-opacity:1" />
      <path
         id="innerPath"
         d="m 40.46,87.1 5.6,5.4 5.5,-5.5 7,3.3 3.4,-7 7.7,0.8 1,-7.7 7.6,-1.7 -1.7,-7.6 6.7,-4.1 -4,-6.7 4.9,-6 -5.9,-5 2.7,-7.3 -7.3,-2.8 0.2,-7.8 -7.8,-0.3 -2.3,-7.4 -7.5,2.2 -4.6,-6.2 -6.3,4.5 -6.4,-4.4 -4.5,6.3 -7.5,-2.1 -2.2,7.5 -7.71,0.4 0.4,7.8 -7.2,2.9 2.8,7.3 -5.593,5.1 4.793,5.9 -3.693,6.8 6.493,3.9 -1.5,7.7 7.7,1.6 0.91,7.7 7.8,-1 3.5,6.9 z m 18.5,4.3 -7.3,-3.4 -5.6,5.7 -5.8,-5.6 -7.2,3.6 -3.6,-7.2 -7.91,1 -1.1,-7.9 -7.9,-1.6 1.6,-7.9 L 7.457,64 11.25,57 6.207,50.9 12.05,45.6 9.357,38.2 l 7.193,-3.1 -0.4,-8 7.91,-0.4 2.3,-7.7 7.7,2.1 4.7,-6.5 6.6,4.5 6.5,-4.6 4.8,6.4 7.7,-2.3 2.4,7.7 8,0.3 -0.2,8 7.5,2.9 -2.8,7.5 6.1,5.2 -5.1,6.2 4.1,6.9 -6.8,4.2 1.7,7.8 -7.8,1.8 -1,8 -8,-0.9 z"
         style="fill:#33302e" />
      <path
         style="fill:#000000"
         d="m 48.86,90.2 c 0.4,-0.5 0.7,0.7 0,0 z M 20.47,89 c 0.83,-0.8 0.11,0.9 0,0 z m 1.1,-0.4 c 0.59,-1 0.19,0.8 0,0 z m 13.49,-3 c 0.5,-1 2.9,-1.5 0.6,0 l -0.3,0.2 z m -0.2,-0.8 c 0.7,-1.2 -0.3,0.9 0,0 z m -1.2,-1.1 c 0.5,-0.9 0.2,0.8 0,0 z M 18.57,83 c -0.77,-1.2 0.94,0.4 0,0 z m 38.69,-0.3 c 3.5,-0.7 -2.1,0.9 0,0 z m -14.2,-0.6 c 0.5,-1.3 0.7,0.7 0,0 z m 15.5,-0.6 c 1.6,-1.6 -0.7,1.6 0,0 z M 16.37,80.4 c 0.75,-1.1 0.82,0.8 0,0 z m 31.59,-0.3 c 0.3,-0.3 -1.5,-0.6 0.1,-0.8 1.1,1.1 -0.2,-2.7 1,-1 0.7,0.9 -1,2.2 -1.1,1.8 z M 59.26,80 c 0.5,-1 0.2,0.8 0,0 z M 16.97,79.4 c 0.87,-1.3 -0.38,1.3 0,0 z m -6.1,-0.2 c -2.563,-0.3 3.21,-2.9 -0.1,-1.1 -0.7,1.8 3.06,-0.6 0.94,1.2 -0.24,0.2 -0.71,0.2 -0.86,-0.1 z m 4,-1.6 c 1.29,-0.8 -0.57,0.7 0,0 z m -0.6,-0.3 c 1.06,-0.9 -0.39,1 0,0 z m 17.59,-0.2 c 0.6,-0.9 1.3,-0.7 0,0 z M 19.37,76.5 c 0.34,-1.2 1.15,0.2 0,0 z m 0.9,-0.9 c 0.45,-1.1 0.31,1.4 0,0 z m 1.39,-1 c 0.5,-0.4 0.6,0.6 0,0 z m -4.49,-0.2 c 1.26,-0.1 -0.15,0.5 0,0 z m 22.09,-0.6 c 0.6,-1.1 1.4,1.2 0,0.1 z M 11.57,73.4 c 1.79,-0.9 0.28,0.7 0,0 z m -0.9,-0.3 c 0,-1.4 0.69,1.1 0,0 z m 2.6,0.1 c 0.63,-1.8 1.06,0.4 0,0 z m 17.69,-0.6 c 1.2,-0.1 -0.4,0.3 0,0 z M 12.37,71.9 c 1.49,-0.2 -0.62,0.4 0,0 z m 18.09,0 c 0.5,-1.3 1.6,-0.5 0,0 z M 19.87,71.2 c 0.91,-2 1.61,0.7 0,0 z m -9.1,-0.1 c 0.72,-0.4 1.19,-2.5 1.11,-0.4 -0.16,0.2 -1.02,1 -1.11,0.4 z m 4.6,-0.9 c 1.04,-2 0.15,1.3 0,0 z m 3.8,0.2 c -0.82,-1.7 1.69,-0.3 0,0 z M 9.699,68.6 c 0.1,-1.7 1.811,-2.3 0.381,-0.2 0.11,0.9 -0.346,1.7 -0.381,0.2 z m 4.271,0 c 0.45,-1.3 0.83,0.5 0,0 z m 1.5,-0.4 c -1.24,-1.6 1.66,0.3 0,0 z m 14.09,-1.1 c 0.9,-1 0.7,0.4 0,0 z M 8.177,66.7 c 1.788,-0.9 -0.78,0.7 0,0 z m 9.093,-0.2 c 0.46,-1.3 0.68,0.7 0,0 z m -4.1,-1 c 0.45,-0.9 1.28,1.1 0,0 z M 8.877,64.6 c 0.39,-0.5 0.51,0.7 0,0 z m 6.693,-1.3 c 1.41,-0.3 0.1,0.4 0,0 z m 1,0 c 0.37,-1.5 1.32,-0.9 0,0 z m 8.59,-0.1 c 0.6,-0.9 0.6,0.8 0,0 z m -5.19,-0.7 c 2.29,-0.7 -0.25,0.8 0,0 z m -4,-0.4 c 0,-1.2 1.15,0 0,0 z m -5.5,-0.4 c 1.55,-2.8 1.38,0.8 0,0 z m 2.4,0.1 c 0.72,-1.2 0.93,0.4 0,0 z m 6.2,0.1 c -0.92,-1.2 0.92,0.1 0,0 z m -2.1,-1 c 0.42,-1.1 0.78,1.4 0,0 z m -1.1,-0.2 c 0.77,-0.7 0.35,1.2 0,0 z m -2.8,-0.1 c 2.36,-2.3 1.27,0.3 0,0 z M 7.377,60.4 c 0.82,-0.5 0.56,0.8 0,0 z m 12.993,0 c 0.84,-0.7 0.1,0.7 0,0 z m -1.6,-0.8 c 3.29,-1.5 -1.25,1.7 0,0 z m 3.69,-0.1 c 0.9,-0.7 0.2,0.8 0,0 z m -7.69,-1.1 c 2.56,-0.7 -0.81,1.3 0,0 z m -4,-0.2 c 2.19,-1.4 -0.854,1.2 0,0 z m 12.29,-0.7 c 0.4,-1 0.1,1 0,0 z m -1.4,-1.2 c 0.4,-0.8 0.1,1.1 0,0 z M 8.477,56.1 c -1.16,-1.3 3.663,-0.6 1.593,-2.2 0.11,-1.8 -0.511,1.6 -0.793,-0.6 1.373,-0.5 2.503,-1 1.393,-2.3 0.46,-2.6 6.09,-1.5 2.81,-0.9 -1.03,2.3 -2.07,5.1 -4.403,5.9 0.1,0.3 -0.52,0.3 -0.6,0.1 z M 19.27,55.9 c 0.36,-1.2 3.29,-1.9 1.04,-0.3 -0.18,0.4 -0.7,1 -1.04,0.3 z m -1.8,-0.7 c 0.58,-1.6 0.62,0.9 0,0 z m -6,-0.1 c 0.48,-1 0.3,0.7 0,0 z m 4.8,-0.1 c 0.18,-1.5 3.16,-2.5 1.35,-0.7 0,0.2 -1.7,1.6 -1.35,0.7 z m -3,-0.1 c 1.29,-2.4 1.75,-0.4 0,0 z M 8.377,53.7 c 0.86,-2.6 1.853,-0.9 0,0 z M 19.37,53.3 c -0.14,-1.5 1.15,-2 1.1,-0.5 1.29,0.4 -1.16,1.7 -1.1,0.5 z M 4.137,53.1 c 0.64,-2.1 0.63,2.2 0,0 z m 1,0.4 c 0.33,-1.1 0.43,0.4 0,0 z m 8.933,-0.8 c 1.16,-0.8 0,0.9 0,0 z M 7.377,52.4 c -0.88,-0.9 1.4,-1.7 1.67,-2.1 0.4,0.5 -1.64,3.3 -1.67,2.1 z m 10.493,0 c 0.29,-2.1 0.6,1 0,0 z m -0.9,-0.3 c 0.88,-1 0.18,0.9 0,0 z m 4.2,0.2 c 0.99,-1.6 2.59,-1 0.21,0 l -0.15,0.1 -0.1,-0.1 z m -4.5,-1.7 c 0.89,-0.7 0,0.9 0,0 z M 4.437,50.3 c -2,-0.5 0.65,-1.3 0.3,0.3 z m 29.123,0 c 0.5,-1.8 2.3,-2.1 0.3,-0.3 l -0.3,0.5 z m -8.8,-0.4 c 2,-1.2 -0.6,0.7 0,0 z m -4.69,-0.3 c 0.96,-0.8 1.99,-0.4 0.2,0 z m -9.2,-0.5 c -0.1,-1.7 2.78,-1.4 0.41,-0.4 -0.32,0.2 0.2,1.4 -0.41,0.4 z m 1.5,-0.4 c 0.36,-2.1 1.75,0.6 0.3,0.3 l -0.64,0 z m 10.99,0.1 c 1.1,-0.7 0.2,0.7 0,0 z M 8.877,47.6 c -0.21,-1.5 1.06,-2.2 0.5,-0.5 0.399,0.8 0,1.8 -0.5,0.5 z m 26.783,0.3 c -0.8,-1.1 1.9,0 0,0 z M 19.67,47.4 c 0.11,-1.8 3.29,-0.1 0.79,0.2 -0.26,0.1 -0.61,0 -0.79,-0.2 z M 6.937,47 c 1.53,-1.6 1.35,1 0,0 z M 26.56,46.8 c 1.3,-0.8 -0.6,1.2 0,0 z m 14.6,-0.2 c 0.9,-0.9 0.8,-0.4 0,0.1 z m -24.39,-1 c 0.63,-2.2 1.66,1.1 0,0 z m 1.9,-0.2 c 0.23,-0.8 0.1,1 0,0 z m 3.49,-0.5 c 1.5,-1.6 0.2,1.4 0,0 z m -1.69,-0.7 c 0.62,-2.7 0,2.5 0,0 z m 18.99,0.4 c 1.5,-1 -0.4,0.8 0,0 z M 12.37,44.3 c 0.81,-1.9 2.47,-0.1 1,-0.1 -0.23,-1.1 -1.04,0.9 -1,0.1 z M 8.777,43.9 c -2.05,-2.5 3.443,0.9 0,0 z M 21.76,43.8 c 0.4,-1.6 0.8,0.9 0,0 z m 1.4,-0.1 c 0.6,-0.8 1.3,-2.1 0.1,-1.1 0.4,-1.7 2,-4.3 2.8,-2.5 2.1,0 -0.6,2.9 -1.4,3 -0.6,-0.1 -1,0.8 -1.5,0.6 z m 3.3,-0.6 c -0.2,-2.4 1,0.9 0.1,0.4 z M 10.17,42.9 c -0.24,-0.9 1.01,1 0,0 z m 10.3,-0.4 c 1.39,-3.7 1.19,1.3 0,0 z M 7.877,42.3 c -1.07,-1.9 1.12,-1 0,0 z m 3.793,-0.5 c 0.63,-1.7 0.61,1.3 0,0 z m 4.9,-0.1 c 1.53,-1.5 -0.41,1.3 0,0 z m -2.1,-0.1 c 0.52,-1.3 0.62,0.8 0,0 z m 3.9,0.1 c 0.45,-1 1.25,-3.1 1.6,-1.3 -0.32,0.3 -1.08,1.6 -1.6,1.3 z m 3.79,-0.6 c 0.9,-0.9 1.2,-3.5 1.3,-0.6 0.3,0.7 -1.2,1.2 -1.3,0.6 z m 5.6,-0.7 c 0.4,-1.6 0.4,0.5 0,0 z m 3.4,-0.1 c 1.5,-0.9 -0.3,1.1 0,0 z m -9.5,-0.4 c 0.9,-0.9 0.1,1 0,0 z m -4.29,-0.4 c 1.05,-0.7 0.1,0.7 0,0 z m 4.29,-0.7 c 0.5,-1.2 0.6,0.5 0,0 z m -1.59,-0.5 c 0.62,-0.8 0.1,0.9 0,0 z m 3.49,0 c 1.3,-1.8 1.8,0.8 0,0 z m 7.6,0.1 c 1.1,-0.2 -0.2,0.4 0,0 z M 8.377,37.8 c -2.02,-0.6 1.08,-1.3 0.42,0.5 -0.28,0.1 -0.44,-0.3 -0.42,-0.5 z m 7.293,0.1 c 0.46,-1 0.28,0.7 0,0 z m -1,-0.5 c 0.6,-0.9 0.46,0.8 0,0 z m 4.7,-0.2 c -0.24,-1.5 0.83,1.2 0,0 z m -5.3,-0.3 c 0.84,-0.7 0,0.9 0,0 z m 6.8,0 c 0,-1.7 1.59,0.2 0,0 z m -4.8,-0.2 c -0.41,-1.7 3.56,-2.2 1.06,-0.3 -0.21,0.5 -0.7,0.4 -1.06,0.3 z m 8.09,-0.3 c 1.6,-0.6 -0.8,0.9 0,0 z m -5.49,-0.2 c 0.86,-1.3 1.27,1.3 0,0 z m 7.39,-0.9 c 0.1,-1.9 0.6,1.1 0,0.5 z m 6.5,0.5 c 1.1,-1.5 1.9,-0.5 0,0 z m 11,-0.1 c 0.6,-0.4 0.3,0.8 0,0 z m -0.7,-0.4 c 0.6,-0.7 0.2,0.6 0,0 z m -15.7,-0.4 c -0.2,-1.6 2,-0.2 0,0 z m 19.5,-0.4 c 0.9,-0.8 0.2,1 0,0 z m -10.6,-0.2 c 1.3,-0.7 -0.7,0.9 0,0 z M 17.27,34.1 c 0.7,-0.8 0,0.9 0,0 z m 17.19,0.2 c 0.7,-0.8 1.6,0.5 0,0 z M 13.37,33.8 c 0.26,-0.8 0,0.9 0,0 z m 2,0.2 c 0.36,-1.5 1.02,-0.2 0,0 z m 10.39,-0.1 c 0.9,-0.7 0.1,0.7 0,0 z m 6.4,0 c 0.6,-0.7 0.2,0.6 0,0 z M 19.57,33.5 c 1.01,-1.5 -2.24,-0.1 0.18,-1.3 1.91,-1.1 2.61,0.7 1.02,0.5 0.2,0.6 -1.23,1.2 -1.2,0.8 z m 21.89,-0.1 c 0.5,-0.5 0.3,0.9 0,0 z m -8.4,-0.9 c 0.3,-1.1 0.2,1.2 0,0 z m -10.3,0.1 c -0.6,-1.8 1.5,0.6 0,0 z m 7.3,0 c 0.6,-2.4 0.5,0.4 0,0 z m 6.7,-0.3 c -0.5,-0.3 -1.3,-0.3 0.1,-0.5 1.3,-0.3 0.6,1.4 -0.1,0.5 z M 17.97,32.2 c 1.1,-1 -0.38,1 0,0 z m 15.79,-0.5 c 0.7,-1.7 3.8,-3.3 1,-1.1 -0.2,0.2 -0.6,1.3 -1,1.1 z m 1.3,-0.1 c 1.2,-1 0.5,0.7 0,0 z M 13.57,31.4 c 0.24,-1.1 0.63,0.3 0,0 z m 12.29,-0.1 c 0.6,-1.3 1.3,0.1 0,0 z m 11.2,-0.4 c 0.9,-1.1 1.3,0.9 0,0 z M 17.97,30.6 c -2.11,0.1 0.53,-2.3 0.3,-0.5 0.65,-0.5 -0.36,1.4 -0.3,0.5 z m 9.89,0.1 c 0.6,-1 0.1,0.8 0,0 z M 15.57,30.5 c -0.38,-1.7 2.06,0.5 0,0 z m 20.39,-0.2 c 1.4,-1.7 2.1,0.4 0,0 z M 13.57,29.5 c 0.66,-2.4 0.93,1.5 0,0 z m 17.19,-0.1 c 0.9,-1.1 2.2,-1.3 0.7,0.1 -0.1,-0.5 -0.8,0.6 -0.7,-0.1 z M 18.57,29.2 c 1.29,-0.6 -0.63,0.8 0,0 z m -3.9,-0.6 c 0.44,-1.2 0.63,0.9 0,0 z m 1.3,-0.2 c 0,-1.2 -4.36,-1.4 -2.24,-3.5 -0.52,1 1.3,0.5 0.84,0.4 -1.27,0 3.78,-1.6 1.32,0.3 -1.48,0.4 1.53,1.5 1.69,-0.1 1.22,1.5 -4.09,1.2 -1.41,2.1 1.82,1.2 0.13,0.6 -0.41,1.1 z m 16.59,0.2 c 1.4,-1 0.8,-1.1 0.7,-2 1.7,0.7 0.5,2 -0.7,2 z m 2.8,0 c 0.4,-1.2 0.6,0.9 0,0 z m -12.1,-0.4 c 1.2,-0.6 2.5,0.3 0,0 z m 6.5,-0.3 c -0.4,-1.3 0.7,0.3 0,0 z m -9.29,-0.3 c 0.57,-0.5 0.57,0.9 0,0 z m 6.39,-0.2 c 1,-0.8 0.2,0.7 0,0 z m 8.9,-0.2 c 0.8,-1 0.2,0.8 0,0 z m -10.1,-0.6 c 1.8,-1.6 -1.1,1.7 0,0 z m -4,0 c 0.5,-1.2 0.4,1.2 0,0 z m -3.29,-0.1 c 0.49,-0.9 0.46,0.7 0,0 z m 12.59,-0.3 c 1.7,-1.6 -0.4,1.6 0,0 z m 10.6,0.3 c 0.2,-1 1.1,0.8 0,0 z m -5.8,-0.3 c 0.9,-1.3 -0.3,1 0,0 z m -1.4,-0.4 c 0.4,-1.3 2.3,-0.4 0,0 z M 19.27,25.5 c 0.26,-0.8 0.42,0.9 0,0 z m 6.99,-0.1 c -0.1,-1 1.6,-2 2.1,-2.8 2.3,-1.1 -0.7,2 0,2.7 -0.6,0.3 -1.4,0.3 -2.1,0.1 z m -5.99,-0.5 c 1.09,-1.1 0.28,1.2 0,0 z m 3.89,-0.7 c 0.2,-1.9 0.6,1 -0.1,0.4 z m 21.1,0 c 1.6,-1.8 -1.1,2.1 -0.1,0.1 z m -26.19,0 c 2.02,-1.8 1.5,0.9 0,0 z m 22.79,0 c 1.7,-1.4 -0.7,-1.8 -0.2,-2.9 -1,-1.6 1.5,0.4 1.7,1.2 1.3,-0.8 2,1.3 0.1,0.3 -0.8,0.1 -0.8,1.4 -1.6,1.4 z m 6.8,-0.3 c 1.9,-0.8 0.2,0.8 0,0 z m -5.4,-0.2 c 0.4,-1.2 0.6,0.9 0,0 z m 3.4,-0.7 c 1,-0.6 0.4,0.8 0,0 z m -23.1,-0.2 c 0.6,-2.1 1.4,0.4 0,0 z m 7.9,-0.3 c 1.5,-1.6 -1,1.7 0,0 z m 13.9,-0.1 c 0.6,-1.4 0.6,1 0,0 z m 1.3,-0.2 c -1.3,-0.6 2.5,-3.7 0.6,-0.8 0.3,0.3 -0.8,1.8 -0.6,0.8 z m -2.4,-0.6 c -1.7,-1.7 1.2,-0.8 0.5,0.1 z m -17,-0.3 c 0.7,-0.8 0,0.9 0,0 z m 22.1,0.1 c 0.3,-1.2 0.7,0.4 0,0 z m -13,-0.8 c 0.5,-0.9 1.2,0.2 0,0 z m 6.1,-0.8 c 0.9,-0.8 0.1,1.2 0,0 z m -1.5,-0.5 c 1.5,-2.1 -0.3,1.6 0,0 z m 0.9,-0.1 c 1.3,-0.7 -0.6,0.9 0,0 z m -1.4,-0.4 c 2,-2.6 -0.5,1.5 0,0 z m 3.2,-1.6 c 0.1,-1.5 0.6,1.2 0,0 z m -1.5,-0.8 c 1.8,-1.5 0.5,1.8 -0.4,0.6 0.1,-0.2 0.3,-0.4 0.4,-0.6 z m -17.1,0.1 c 0.2,-1.3 2.5,-1 0.2,0 z m 1.7,-0.4 c 0.6,-1.6 0.7,1 0,0 z m 8.6,-1.3 c 1,-0.5 0.8,1 0,0 z"
         id="path5235-4" />
    </g>
    <path
       style="fill:#33302e"
       d="m 38.37,48.67 2.6,-14.03 2.9,-0.4 1.9,13.38 2.8,-14.04 1.5,-0.22 -3.8,17.15 -3.2,0.45 -1.5,-11.12 -2.8,11.72 -3.2,0.45 -2.1,-14.91 c -2.3,1.07 -3.2,2.94 -2.9,5.34 0.1,1.11 0.5,1.26 0.5,1.44 -1.4,0.22 -2.3,-0.21 -2.6,-1.79 -0.5,-2.9 3.2,-6.25 6.9,-6.77 0.3,0 0.5,-0.1 0.9,-0.1 l 2.1,13.42 z m 16.5,-1.35 c 0.8,-0.12 1.8,-0.81 2.5,-1.52 -0.2,2.56 -1.7,3.51 -3.4,3.77 -2,0.28 -3.5,-0.53 -3.9,-3.01 -0.4,-2.51 0.4,-7.97 4.8,-8.6 1.9,-0.27 2.5,0.66 2.7,1.76 0.4,2.53 -1.8,4.79 -4.4,5.31 0,0.22 0,0.47 0.1,0.66 0.2,1.38 0.8,1.73 1.6,1.63 z m 0.4,-8.23 c -1.2,0.16 -1.9,2.73 -2.1,4.87 1.7,-0.32 3,-2.21 2.7,-4.05 -0.1,-0.54 -0.2,-0.88 -0.6,-0.82 z"
       id="path1176" />
    <path
       style="fill:#33302e"
       d="m 20.27,59.17 -0.3,3.4 0.1,0 c 1.2,-0.1 1.8,-1.6 1.7,-2.7 -0.1,-0.9 -0.6,-1.5 -1.8,-1.3 -2.3,0.3 -3.7,1.8 -3.3,4 0.1,0.8 0.3,0.9 0.3,1 -1.1,0.1 -1.6,-0.2 -1.8,-1.2 -0.3,-2 2.1,-4.1 4.5,-4.5 2.3,-0.3 3.5,0.7 3.6,1.9 0.2,0.8 -0.3,1.9 -1.2,2.7 0.8,0 1.1,0.6 1.2,1.2 0.2,1.2 -0.3,2.9 -0.2,3.8 0.1,0.4 0.4,0.8 0.8,0.9 -0.7,0.2 -1.1,0.3 -1.4,0.4 -1,0.1 -1.2,-0.3 -1.3,-0.8 -0.1,-0.9 0.4,-2.8 0.2,-3.9 0,-0.5 -0.3,-0.9 -0.9,-0.8 -0.2,0 -0.3,0 -0.5,0.1 l -0.5,5.5 -2,0.4 0.6,-9.5 z m 6.7,7.6 c 1.2,-0.2 1.8,-0.9 2.4,-1.9 l 0.5,0 c -0.7,1.4 -1.7,2.9 -3.6,3.2 -1.4,0.2 -2.3,-0.4 -2.6,-2 -0.2,-1.6 0.3,-5.2 3.2,-5.7 1.3,-0.2 1.7,0.5 1.8,1.2 0.1,1.7 -1.2,3.2 -2.9,3.5 l 0,0.6 c 0.2,1 0.6,1.2 1.2,1.1 z m 0.1,-5.6 c -0.7,0.2 -1.2,1.7 -1.3,3.2 1.1,-0.2 1.9,-1.5 1.8,-2.7 -0.1,-0.3 -0.2,-0.5 -0.5,-0.5 z m 5.4,-0.1 c -0.1,-0.4 -0.2,-0.6 -0.5,-0.6 -0.8,0.1 -1.5,2.9 -1.2,4.5 0.1,1 0.4,1.1 1.2,1.1 1.1,-0.2 1.7,-0.9 2.3,-1.8 l 0.5,-0.1 c -0.6,1.4 -1.6,3 -3.6,3.2 -1.3,0.2 -2.4,-0.3 -2.5,-2 -0.3,-1.7 0.1,-5.2 3.1,-5.6 1.3,-0.2 1.7,0.4 1.8,1.1 0.1,0.6 -0.2,1.1 -0.6,1.1 -0.2,0.1 -0.4,0 -0.6,-0.1 0.1,-0.3 0.1,-0.6 0.1,-0.8 z m 6.5,0 c 0.1,0.1 0.1,0 0.2,0 0.6,-0.1 1.5,-0.7 2,-1.1 l 0.2,0.3 c -0.5,0.7 -1.3,1.2 -2.3,1.6 0.1,2.7 -1.1,4.5 -2.9,4.8 -1.4,0.2 -2.4,-0.4 -2.6,-1.9 -0.2,-1.7 0.2,-5.3 3.2,-5.8 1.3,-0.1 2,0.6 2.2,2.1 z m -1.1,1 c -0.4,0 -0.5,-0.3 -0.5,-0.6 -0.1,-0.4 0.1,-0.7 0.3,-0.8 -0.1,-0.6 -0.3,-0.8 -0.6,-0.7 -1.1,0.1 -1.6,2.8 -1.4,4.2 0.2,1 0.3,1.2 0.9,1.1 0.7,-0.1 1.3,-1.5 1.3,-3.2 z m 8.3,-3 c -0.6,0.1 -0.8,0.8 -0.9,1.5 l -0.4,4.8 -2,0.3 0.3,-5.1 0,-0.4 c -0.1,-0.3 -0.2,-0.6 -0.5,-0.6 -0.6,0.1 -0.8,0.8 -1,1.6 l -0.3,4.7 -2.1,0.2 0.5,-7.3 2.1,-0.3 0,0.7 c 0.4,-0.7 1.1,-1 1.6,-1 0.7,-0.1 1.3,0.1 1.7,1 0.4,-1.2 1.3,-1.5 1.7,-1.5 0.9,-0.1 1.7,0.2 1.9,1.4 0.2,1.1 -0.3,3 -0.2,3.8 0.1,0.4 0.3,0.6 0.7,0.6 0.6,-0.1 0.8,-0.7 1,-1.5 l 0.6,-0.1 c -0.5,2.5 -1.5,3 -2.3,3 -1.2,0.2 -1.8,-0.5 -2,-1.3 0,-1.1 0.3,-2.9 0.2,-3.8 -0.1,-0.5 -0.2,-0.7 -0.6,-0.7 z m 17.8,2.2 c 1.1,-0.1 1.7,-0.9 2.3,-1.8 l 0.5,-0.1 c -0.6,1.4 -1.6,3 -3.6,3.2 -1.3,0.2 -2.4,-0.3 -2.5,-2 -0.3,-1.6 0.1,-5.19 3.1,-5.61 1.3,-0.17 1.7,0.45 1.8,1.12 0.2,1.59 -1.2,3.19 -2.9,3.49 0,0.3 0.1,0.5 0.1,0.6 0.1,1 0.4,1.2 1.2,1.1 z m 0.1,-5.56 c -0.8,0.1 -1.3,1.76 -1.4,3.26 1.1,-0.3 1.9,-1.5 1.8,-2.7 -0.1,-0.37 -0.1,-0.6 -0.4,-0.56 z m 4.8,-0.1 c -0.5,0.1 -0.9,0.74 -0.9,1.56 l -0.3,4.7 -2.1,0.3 0.5,-7.45 2,-0.28 0,0.76 c 0.5,-0.77 1.1,-0.97 1.6,-1.04 0.9,-0.13 1.7,0.25 1.8,1.4 0.1,1.16 -0.3,3.01 -0.1,3.71 0,0.4 0.1,0.7 0.6,0.6 0.7,-0.1 0.8,-0.7 1,-1.5 l 0.6,-0.1 c -0.5,2.6 -1.5,3.1 -2.3,3.1 -1.2,0.1 -1.8,-0.5 -1.9,-1.4 -0.2,-1 0.2,-2.8 0.1,-3.71 -0.1,-0.51 -0.3,-0.71 -0.6,-0.65 z m 9.5,2.36 c -0.1,0.2 -0.1,0.4 0,0.5 0,0.4 0.2,0.5 0.6,0.5 0.3,0 0.4,-0.1 0.5,-0.1 0,1 -0.7,1.5 -1.4,1.6 -0.7,0.1 -1.4,-0.2 -1.7,-1 -0.3,0.7 -0.9,1.4 -1.9,1.6 -0.9,0.1 -1.9,-0.4 -2.2,-2.1 -0.3,-1.98 0.4,-5.26 3,-5.61 0.8,-0.12 1.3,0.17 1.2,0.57 l 0,0.1 0.3,-3.41 2.1,-0.58 z m -1.9,-3.37 c -0.1,-0.16 -0.2,-0.48 -0.6,-0.41 -1.3,0.17 -1.7,2.9 -1.5,4.28 0.2,1.1 0.7,1 0.8,1 0.4,-0.1 1,-0.5 1.1,-1.2 z m -19.9,2.87 c -0.5,0.1 -0.8,0.8 -0.9,1.5 l -0.4,4.8 -2,0.3 0.4,-5.1 0,-0.3 c -0.1,-0.4 -0.3,-0.7 -0.6,-0.7 -0.6,0.1 -0.8,0.9 -1,1.6 l -0.3,4.7 -2.1,0.3 0.5,-7.42 2.1,-0.28 0,0.7 c 0.4,-0.7 1.1,-0.97 1.6,-0.97 0.8,-0.1 1.3,0.1 1.7,0.97 0.5,-1.16 1.3,-1.43 1.7,-1.43 1,-0.19 1.7,0.18 1.9,1.33 0.2,1.2 -0.3,3 -0.2,3.9 0.1,0.3 0.3,0.5 0.7,0.5 0.6,-0.1 0.8,-0.6 1.1,-1.5 l 0.5,-0.1 c -0.5,2.5 -1.5,3 -2.3,3.1 -1.2,0.2 -1.7,-0.6 -1.9,-1.4 -0.1,-1 0.2,-2.9 0.2,-3.8 -0.1,-0.5 -0.3,-0.7 -0.7,-0.7 z"
       id="path1178" />
  </g>
</svg>
