<?xml version="1.0" encoding="UTF-8" standalone="no"?>
<svg
   xmlns:dc="http://purl.org/dc/elements/1.1/"
   xmlns:cc="http://creativecommons.org/ns#"
   xmlns:rdf="http://www.w3.org/1999/02/22-rdf-syntax-ns#"
   xmlns:svg="http://www.w3.org/2000/svg"
   xmlns="http://www.w3.org/2000/svg"
   version="1.1"
   id="svg2"
   viewBox="0 0 50 50"
   height="50"
   width="50">
  <defs
     id="defs4" />
  <metadata
     id="metadata7">
    <rdf:RDF>
      <cc:Work
         rdf:about="">
        <dc:format>image/svg+xml</dc:format>
        <dc:type
           rdf:resource="http://purl.org/dc/dcmitype/StillImage" />
        <dc:title></dc:title>
      </cc:Work>
    </rdf:RDF>
  </metadata>
  <g
     transform="translate(0,-1002)"
     id="layer1">
    <rect
       y="1008"
       x="19.44"
       height="44.11"
       width="23.8"
       id="rect4149"
       style="fill:#ffffff;fill-opacity:1;stroke:none;stroke-width:0.5;stroke-linejoin:miter;stroke-miterlimit:4;stroke-dasharray:none;stroke-dashoffset:0;stroke-opacity:1" />
    <path
       id="path4147"
       d="m 2.321,1052 c -1.3,0 -1.9761,-1 -2.321,-2 l 2.006e-4,-46 C 0.2859,1003 1.074,1002 2.006,1002 l 46.014,0 c 1,0 1.69,1 1.98,2 l 0,46 c -0.29,1 -0.98,2 -1.93,2 l -13.5,0 0,-19 6.5,0 0.99,-8 -7.49,0 c 0,0 -0.21,-4 0.42,-6 0.77,-2 2.46,-2 5.26,-2 l 2.05,0 0,-7 c -4.96,0 -11.82,-1 -14.41,4 -1.61,3 -1.15,11 -1.15,11 l -6.55,0 0,8 6.55,0 0,19 z"
       style="fill:#808080" />
  </g>
</svg>
