<?xml version="1.0" encoding="UTF-8" standalone="no"?>
<svg
   xmlns:dc="http://purl.org/dc/elements/1.1/"
   xmlns:cc="http://creativecommons.org/ns#"
   xmlns:rdf="http://www.w3.org/1999/02/22-rdf-syntax-ns#"
   xmlns:svg="http://www.w3.org/2000/svg"
   xmlns="http://www.w3.org/2000/svg"
   version="1.1"
   id="svg2"
   viewBox="0 0 399.7 145.3"
   height="145.4"
   width="399.7">
  <defs
     id="defs4">
    <filter
       style="color-interpolation-filters:sRGB;"
       id="filter4138">
      <feFlood
         flood-opacity="1"
         flood-color="rgb(235,126,23)"
         result="flood"
         id="feFlood4140" />
      <feComposite
         in="flood"
         in2="SourceGraphic"
         operator="in"
         result="composite1"
         id="feComposite4142" />
      <feGaussianBlur
         in="composite1"
         stdDeviation="2"
         result="blur"
         id="feGaussianBlur4144" />
      <feOffset
         dx="0"
         dy="0"
         result="offset"
         id="feOffset4146" />
      <feComposite
         in="SourceGraphic"
         in2="offset"
         operator="over"
         result="composite2"
         id="feComposite4148" />
    </filter>
  </defs>
  <metadata
     id="metadata7">
    <rdf:RDF>
      <cc:Work
         rdf:about="">
        <dc:format>image/svg+xml</dc:format>
        <dc:type
           rdf:resource="http://purl.org/dc/dcmitype/StillImage" />
        <dc:title></dc:title>
      </cc:Work>
    </rdf:RDF>
  </metadata>
  <g
     id="layer1"
     transform="translate(15.65,18.51)">
    <g
       id="g4237">
      <path
         id="path4253"
         d="m 258.3,78.75 c -0.1,-9.2 -12.5,-16.9 -12.2,-21.9 -2.4,5 -14.3,9.4 -4.7,3 2.1,-5.8 -11.2,2 -13.5,2.7 -6.5,-2.7 -5.9,9.5 -9.2,2.8 -8,5.8 -20.6,3.8 -23.7,15.2 -5.7,2.6 -18.7,3 -9.8,-5.8 6.2,-10.2 13.3,-18.9 19.7,-28.8 7,-9 8.5,-24.4 21.4,-27.3 12.8,-2 12.2,19.3 21.9,24.9 7.2,7.9 7,15.3 15,20.4 1.2,5.6 18.6,14.6 4.2,16.2 -3.9,2.9 -7.5,4.7 -9.1,-1.4 z m -50.8,-12.4 c 6.1,-3.8 14.3,-4.8 17.6,-7.9 4.8,3.5 17.5,-5.2 19.4,-4.9 -6.4,-9.5 -12.2,-17.2 -19.2,-25.9 -9.3,6.1 -13.2,19.1 -19.9,26.5 0.3,4.2 -10.1,18 2.1,12.2 z m -4.2,-2.3 c 8.9,-4.4 6.7,0.1 0,0 z M 17.95,77.25 c -17.184,0.4 5.97,-10.1 9.94,-14.2 9.05,-9.1 20.26,-16.1 28.06,-25.5 6.9,-6.5 14.1,-7.8 17.1,-15.9 8.06,-6.6 14.46,-15.6 22.96,-22.5204 6.59,-4.3996 9.19,-10.1996 -0.2,-8.2996 -15.8,-0.3 -31.76,0.5 -47.56,-1.1 -10.96,-0.9 -22.97,2.8 -34.57,1.8 2.3,-10.1 20.19,-9.8 29.82,-9.3 27.95,3 56,1.3 83.9,1.8 8.7,4.8 -13.2,6.5 -9.1,12.1 -4,5.1 -13.4,3.0996 -10.9,9.32 -8.8,8.6 -19.59,16.2 -26.39,25.9 -6.26,7.6 -19.36,7.8 -18.36,17.7 -4.3,6.4 -16.65,4.2 -12.4,12.1 -10.8,9.9 13.8,5.4 19.8,6.6 13.06,1.4 26.06,0.5 39.15,0.4 18.6,-0.8 37.7,1.7 56,-2.6 7.6,3.4 -9,8.8 -12.9,10.2 -4.4,2 -8.9,2.9 -13.6,1.4 -22.5,-2.6 -45.19,-2.3 -67.75,-2.4 -11.1,-0.6 -23.95,1.9 -36.26,1.9 -5.58,0.1 -11.15,1.1 -16.74,0.6 z m 195.15,-3.7 c 2.6,-9.2 2.3,3.8 0,0 z m 9.9,-6.6 c 1.3,-4.9 12.5,-0.7 2.2,0.7 -0.5,0.4 -2.5,0.6 -2.2,-0.7 z m -105.6,-4.1 c 5,-11.1 2.7,-17.4 2.7,-31.6 1.8,-6.5 -6.6,-18.7 0.8,-22 5.9,-3.2 14.6,-2.6 9.4,5.5 -0.1,13.3 -1.8,26.6 -0.5,39.9 2.6,7.2 -7.6,8.7 -12.4,8.2 z m 58.5,-0.1 c -5.3,-10.6 -11.1,-20.5 -18.6,-29.5 -4,-6.7 -9.5,-12.3 -14,-19 -7.3,-4.5 13.2,-12.1 11.7,-1 4.7,10 9,17.5 14.9,24.2 3.4,6.1 8.3,13.9 13.6,17 7.8,-9.5 14.4,-19.7 18.9,-31.1 -0.9,-8.7 9.5,-20.8 17,-14.3 -4.8,11.3 -13.8,19.5 -19.6,30 -5.6,9.3 -10.3,26.1 -23.9,23.7 l 0,0 z m 93.1,-0.1 c 5.8,-6.8 16.1,-12.7 23.1,-20 10.2,-6.6 16.2,-16.7 25.5,-24.5 10,-8.9 -14.4,-3.3 -19.1,-5 -7.8,-1.9 -24.3,2.9 -27.7,-1.3 11.4,-7.5 26.2,-1.5 39.1,-3 8.8,0.9 21.2,-1.4 28,2 -8.3,5 -15.1,12.7 -23.1,19.8 -8.3,7.6 -15.6,15.1 -23.9,20.8 -4,10.2 15.8,3.9 23.7,5.8 14.9,0.2 30.7,-0.1 44.9,-0.4 -8,9.8 -22.1,4.9 -33,5.2 -19.2,-0.8 -38.4,1.5 -57.5,0.6 z"
         style="fill:#96953d" />
      <path
         id="path4249"
         d="m 258.2,78.81 c -0.1,-8.1 -11,-16.6 -11.8,-21.2 -5.8,4.1 -12,8.8 -4.4,0.6 -10.2,-1.5 -18,10.4 -26.3,8 -6,4.7 -17.8,3.8 -20.2,13.5 9.4,-12.6 -18.3,2.6 -6.9,-10.3 6.1,-8.8 15,-21.9 19.6,-27.9 -3.2,11.3 -20.7,23.3 -18.2,31.9 12.9,-6.8 27.3,-12.8 41.3,-14.6 6.7,-2.5 18.1,-4.5 8.4,-12 -6.4,-8.2 -15.5,-27.9 -22.8,-10 -11.3,14.3 4,-13.2 11.2,-8.3 7.6,6.7 11.4,27.8 24.5,22.8 -9.7,-9 -14.3,-21.7 -21.6,-32.2 0.1,-3.2 8.6,12.5 11.1,16.4 7,9 12.3,17.9 16.6,24.7 5.3,6.9 23.2,18.4 6,21.8 -2.7,1.7 -6.4,0.2 -6.5,-3.2 z m 6.6,1.8 c 14.6,-2.7 -4.1,-16.3 -8.3,-20.8 -13.1,1.4 5.5,13.1 3.6,20.7 0.6,2.2 3.8,1.7 4.7,0.1 z m -82.8,0.9 c 2.5,-8.6 2.7,-0.4 1,0.8 l -1,-0.8 z m 4.9,0 c 10.3,-2.3 7.2,0.8 0,0 z m -49.5,-4.5 c -12.7,-1.9 -34.3,-1.1 -41.49,-3.2 16.49,0.6 33.09,1.5 49.69,2.9 4.9,-1.4 22.5,-5.8 17.1,-10 -18.7,4.6 -38.1,1.3 -57.1,2.5 -5,0.3 -24.99,-0.5 -10.79,-0.9 21.09,-0.7 42.39,0.8 63.59,-1.3 10.7,-6.4 9.4,5.8 0.5,6.6 -7,1.8 -14.1,5.8 -21.5,3.4 z M 10.45,76.51 c 2.2,-6.2 24.08,-15.4 9.08,-6.8 -9.549,3.5 -6.46,8.4 2.08,7 -3.71,0.2 -7.46,0.2 -11.16,-0.2 z m 18.46,-0.1 c 5.47,-0.5 6.8,0.8 0,0 z m 16.82,-0.9 c 5.21,-0.2 19.87,-3.1 19.09,-0.5 -7.48,0.1 -25.09,1.5 -26.14,0.7 2.35,-0.1 4.7,-0.1 7.05,-0.2 z m 23.72,-1 c 5.56,-1.8 28.25,0.1 11.26,0.6 -3.7,0 -7.55,0.2 -11.26,-0.6 z M 213,73.61 c 1.4,-8.4 3.2,1.9 0,0 z M 78.11,68.91 c -5.42,-2.5 12.6,2.2 0,0 z m -24.46,-0.6 c 9.44,-0.6 2.31,0.8 0,0 z m -8.2,-1.5 c 0.77,-5.4 8.9,-8.1 1.44,-2.3 0.45,3.2 4.02,4 -1.44,2.3 z m 19.9,0.6 c 5.32,-0.6 11.06,0.8 0,0 z m 157.55,-0.4 c 6.4,-7.2 9.5,3.4 0,0 z M 201,62.81 c 1.1,-5.7 10.9,-19.3 3.8,-6.9 -1.2,0.9 -1.5,9.9 -3.8,6.9 z m 2.2,1.2 c 4.8,-3.2 9.6,-0.8 0,0 z M 27.78,63.11 c 1.95,-4.7 19.62,-15.1 7.95,-6.3 -2.64,2.1 -5,4.6 -7.95,6.3 z m 89.52,-0.2 c 0.1,-7.8 5.8,-12.3 0.7,-2.4 -0.4,4.1 6.4,1.6 -0.7,2.4 z m 56.6,-3.4 c -4.8,-8.2 8.4,10.4 12.5,-0.2 5.1,-4.5 11.9,-19.5 5.2,-4.8 -3.2,5.1 -13.5,13.6 -17.7,5 z m 95,3.2 c 13,-12.8 29,-22.3 40.6,-36.6 1.6,-4 17.4,-11.6 8.4,-13.6 11.2,1.5 -8.3,11.6 -10,16.6 -11.1,12.9 -25.5,22.3 -37.9,33.6 l -1.1,0 0,0 z m 6.9,0.2 c 5.6,-0.9 4.8,1.2 0,0 z m 59.2,-0.4 c -17.5,-1.1 -35,0.3 -52.5,-0.3 21.6,-1.9 43.3,-0.8 64.9,-0.1 5.6,0.2 13.6,-6.7 3.4,-3.8 -8,0.6 -29.3,0.6 -28.9,-0.6 11.2,0.8 29.9,-1.9 36.4,0.5 -6,6 -15.5,5.5 -23.3,4.3 z m -209.4,-1.6 c 7,-12.7 0,-28 3.3,-41.6 0.5,-5.4 3.5,-15 1.7,-3.5 -2.7,14.7 0.4,30.1 -1.9,44.4 -1.3,2.5 -8.2,2.9 -3.1,0.7 z m -76.95,-2.5 c 0.63,-7.8 19.13,-5.7 13.7,-16.1 14.86,-5.6 23.66,-20 35.75,-29.5 9.5,-8.9 15.7,-19.38 28.4,-24.38 3,-9 -19.6,-0.6 -18.9,-4.5 5.8,-0.4 29.5,-2.6 16.7,7 -11.5,6.1 -19.1,16.48 -29.19,26.08 -9.2,9.7 -18.6,18.4 -29.94,25.7 -1.55,9.5 -10.75,10.3 -16.52,15.7 z m 251.65,0 c -8,2.3 -17.1,-3.1 -7.4,-9.2 8.9,-6.1 5.3,-0.5 -1.1,2 -6.3,11.5 18.6,3.6 17.7,7.5 -3.1,0 -6.1,-0.2 -9.2,-0.3 z m -120.5,-4.2 c -7.3,-11.9 -17.2,-22.2 -22.8,-35.1 -0.6,-7.9 -13.8,-15.9 -13.8,-5 8.1,8.3 14.7,17.5 21.1,26.9 4,4.7 8.9,16.1 2,4.4 -7.6,-9.4 -13.4,-20.1 -22,-28.6 -8.3,-11.8 13.2,-11.5 12.6,0.1 5.9,13.6 15.8,24.4 24.1,36.3 1.5,1.1 0.1,3.3 -1.2,1 z m 6.3,-3.1 c 9.2,-11.1 15.5,-24.3 18.9,-37.9 4,-8.5 20.4,-6.8 10.3,3.4 -5,6.3 -16.3,24.3 -17.6,24.4 4.7,-11.2 16.5,-18.3 18.4,-30.6 -11.6,-5.6 -12.3,17.2 -17.9,24.5 -2.4,5.3 -13.1,19.3 -13.2,18 l 1.1,-1.8 0,0 z m -65.2,1 c 0.2,-13.9 -3.8,-30.1 -1.2,-42.5 5.9,-2.3 11.5,-2.3 2.3,0 -8,8.7 2.8,24.4 -0.2,36.2 -2.7,2.8 5.7,9.2 -0.9,6.3 z m -77.82,-1.5 c 5.36,-6.4 18.92,-19 21.18,-19 -6.69,5.5 -16.13,16.4 -21.18,19 l 0,0 z m 167.12,-3.6 c 1.8,-7.2 -0.1,4.7 0,0 z m 87.8,-3.4 c 10.2,-6.7 18.6,-15.8 26.9,-24.5 3.3,-2.4 16,-10.3 5.8,-9.5 16.6,-1.1 -6,8.7 -8.6,14.2 -8.3,6 -14,17.2 -24.1,19.8 z m -88.2,-7.1 c 2.5,-6.8 12.1,-19.1 14.9,-17.1 -7.9,2.6 -9.5,11.8 -14.9,17.1 z M 68.45,29.71 c 5.3,-11 15.66,-18.3 24.06,-26.8 9.59,-3.98 7.09,-15.28 6.99,-13.48 11.4,5.9 -15.19,18.18 -19.19,26.38 -4.51,1.9 -12.4,17.2 -11.86,13.9 z M 269.9,12.91 c 1.6,-6.1 17.7,-3.4 5.6,-2.9 -8.2,0 1.9,7 -5.6,2.9 z m 29.5,0.3 c 6.5,-1.8 9.4,-0.3 1.1,0.3 l -1.1,-0.3 z m 9.9,-0.3 c 10,-1.1 7,2.6 0,0 z m -26.5,-0.8 c 5.5,-1.6 15,1.4 4,0.7 -1.6,0.2 -11,-0.2 -4,-0.7 z m 27,-1.5 c -5.9,-1.3 -28.9,-1.4 -11.3,-1.8 2,0.1 23.3,-0.3 11.3,1.8 z m 6.8,-0.5 c 6.3,-1.9 12.9,-0.2 2.7,0.2 -0.9,0 -1.9,0.3 -2.7,-0.2 z m -33.1,-2.1 c 3.9,-1 3.3,0.8 0,0.3 l 0,-0.3 z M 13.12,-8.07 c -2.46,-8.8 26.42,-10.6 9.43,-7.3 -6.14,1.1 -12.25,9.7 -1.4,6.2 8.92,-0.2 -8.34,2 -8.03,1.1 z m 65.09,-0.7 c 9.2,-2.7 8.1,1.3 0,0 z m 10.9,-0.3 c 4.5,-1 3.7,1.3 0,0 z m -55.48,-1 c 7.56,-3.5 23.86,0.5 26.33,0.5 -10.19,-1 -20.21,-0.8 -30.35,-0.1 -3.73,-0.3 3.59,-0.1 4.02,-0.4 z m 35.32,0 c 9.36,-0.8 1.18,1.4 0,0 l 0,0 z m 12.26,-4.8 c -5.77,-1.6 -17.16,0.4 -4.5,-1.1 5.7,0.1 20.79,-0.8 6.8,2.2 l -1.1,-0.3 -1.2,-0.8 z m 15.5,-0.6 c 5.29,-0.9 4.89,1.2 0,0 z m -42.16,-0.9 c 5.83,-0.7 13.09,0.7 3.23,0.4 0.94,-0.3 -6.05,0.4 -3.23,-0.4 z m -22.44,-0.8 c 5.63,-1.7 -1.16,2.1 0,0 z m 11.2,0 c 5.66,-0.5 5.64,0.7 0,0 z m -7.21,-0.9 c 5.9,-1.6 1.82,1.7 0,0 z"
         style="fill:#c0333d" />
    </g>
  </g>
  <g
     id="text4137"
     style="font-style:normal;font-weight:normal;font-size:34.5946px;line-height:125%;font-family:sans-serif;letter-spacing:0px;word-spacing:0px;fill:#ffffff;fill-opacity:1;stroke:none;stroke-width:1px;stroke-linecap:butt;stroke-linejoin:miter;stroke-opacity:1;filter:url(#filter4138)"
     transform="matrix(0.9268,0,0,1.079,26.1,-1.123)">
    <path
       id="path4146"
       style="font-style:normal;font-variant:normal;font-weight:500;font-stretch:normal;font-family:Dosis;-inkscape-font-specification:'Dosis Medium';fill:#ffffff;fill-opacity:1"
       d="m 17.95,114.4 q 0,-0.8 -0.31,-1.6 -0.28,-0.7 -0.76,-1.2 -0.49,-0.6 -1.14,-0.8 -0.66,-0.4 -1.39,-0.4 -0.69,0 -1.35,0.3 -0.65,0.3 -1.17,0.8 -0.52,0.5 -0.87,1.3 -0.31,0.7 -0.31,1.7 l 0,8.9 q 0,0.4 -0.45,0.7 -0.415,0.4 -1.003,0.4 -0.623,0 -1.038,-0.4 -0.38,-0.3 -0.38,-0.7 l 0,-14.3 q 0,-0.5 0.38,-0.8 0.415,-0.2 1.038,-0.2 0.554,0 0.933,0.2 0.38,0.3 0.38,0.8 l 0,1.4 q 0.59,-1 1.73,-1.8 1.14,-0.8 2.87,-0.8 1.66,0 2.91,0.9 1.24,1 1.83,2.5 0.9,-1.8 2.32,-2.6 1.42,-0.8 2.94,-0.8 1.14,0 2.21,0.4 1.08,0.5 1.87,1.3 0.83,0.8 1.32,2.1 0.52,1.2 0.52,2.8 l 0,8.9 q 0,0.4 -0.45,0.7 -0.42,0.4 -1.01,0.4 -0.58,0 -1,-0.4 -0.42,-0.3 -0.42,-0.7 l 0,-8.9 q 0,-1 -0.31,-1.8 -0.31,-0.7 -0.83,-1.2 -0.52,-0.5 -1.17,-0.8 -0.66,-0.3 -1.32,-0.3 -0.69,0 -1.35,0.3 -0.65,0.3 -1.17,0.8 -0.52,0.5 -0.87,1.3 -0.31,0.7 -0.31,1.6 l 0,9.1 q 0,0.5 -0.45,0.7 -0.45,0.3 -1,0.3 -0.49,0 -0.97,-0.3 -0.45,-0.2 -0.45,-0.7 l 0,-9.1 z" />
    <path
       id="path4148"
       style="font-style:normal;font-variant:normal;font-weight:500;font-stretch:normal;font-family:Dosis;-inkscape-font-specification:'Dosis Medium';fill:#ffffff;fill-opacity:1"
       d="m 41.2,107.9 q 1.32,0 2.53,0.4 1.21,0.5 2.11,1.4 0.93,0.8 1.45,2 0.55,1.1 0.55,2.5 0,1.1 -0.27,1.6 -0.24,0.6 -0.69,0.9 -0.42,0.3 -0.97,0.4 -0.56,0 -1.14,0 l -7.58,0 0,1 q 0,2 1.35,3.1 1.38,1.1 3.56,1.1 0.97,0 1.63,-0.2 0.66,-0.2 1.1,-0.4 0.49,-0.3 0.8,-0.5 0.35,-0.2 0.66,-0.2 0.52,0 0.83,0.5 0.34,0.4 0.34,0.8 0,0.3 -0.38,0.7 -0.38,0.5 -1.1,0.8 -0.7,0.4 -1.73,0.7 -1.01,0.2 -2.25,0.2 -1.7,0 -3.12,-0.4 -1.38,-0.5 -2.42,-1.4 -1,-0.9 -1.59,-2.1 -0.55,-1.3 -0.55,-2.8 l 0,-3.6 q 0,-1.3 0.52,-2.5 0.55,-1.2 1.48,-2.1 0.94,-0.9 2.18,-1.4 1.28,-0.5 2.7,-0.5 z m 2.39,7.3 q 0.9,0 1.21,-0.3 0.31,-0.2 0.31,-0.9 0,-0.7 -0.31,-1.4 -0.28,-0.7 -0.8,-1.3 -0.51,-0.5 -1.24,-0.8 -0.73,-0.4 -1.59,-0.4 -0.83,0 -1.56,0.3 -0.69,0.3 -1.24,0.8 -0.56,0.5 -0.87,1.2 -0.31,0.7 -0.31,1.5 l 0,1.3 6.4,0 z" />
    <path
       id="path4150"
       style="font-style:normal;font-variant:normal;font-weight:500;font-stretch:normal;font-family:Dosis;-inkscape-font-specification:'Dosis Medium';fill:#ffffff;fill-opacity:1"
       d="m 49.81,123.3 q 0,-0.3 0.17,-0.6 l 4.47,-6.5 -4.29,-6.3 q -0.21,-0.3 -0.21,-0.6 0,-0.2 0.17,-0.5 0.18,-0.3 0.45,-0.5 0.28,-0.2 0.59,-0.3 0.35,-0.1 0.62,-0.1 0.18,0 0.38,0.1 0.21,0 0.38,0.3 l 3.81,5.9 3.87,-5.9 q 0.14,-0.2 0.35,-0.3 0.24,-0.1 0.42,-0.1 0.24,0 0.55,0.1 0.34,0.1 0.59,0.3 0.27,0.2 0.45,0.5 0.2,0.3 0.2,0.5 0,0.3 -0.17,0.6 l -4.36,6.3 4.5,6.5 q 0.17,0.3 0.17,0.6 0,0.5 -0.59,1 -0.58,0.4 -1.17,0.4 -0.21,0 -0.45,-0.1 -0.21,-0.1 -0.35,-0.3 l -4.01,-6.1 -3.98,6.1 q -0.14,0.2 -0.38,0.3 -0.21,0.1 -0.41,0.1 -0.25,0 -0.56,-0.1 -0.31,-0.1 -0.59,-0.3 -0.24,-0.2 -0.45,-0.5 -0.17,-0.2 -0.17,-0.5 z" />
    <path
       id="path4152"
       style="font-style:normal;font-variant:normal;font-weight:500;font-stretch:normal;font-family:Dosis;-inkscape-font-specification:'Dosis Medium';fill:#ffffff;fill-opacity:1"
       d="m 67.17,108.1 q 0.59,0 1,0.2 0.45,0.3 0.45,0.8 l 0,14.3 q 0,0.4 -0.45,0.7 -0.41,0.4 -1,0.4 -0.59,0 -1,-0.4 -0.42,-0.3 -0.42,-0.7 l 0,-14.3 q 0,-0.5 0.42,-0.8 0.41,-0.2 1,-0.2 z m 0,-7.8 q 0.73,0 1.25,0.5 0.51,0.4 0.51,1.1 0,0.7 -0.51,1.2 -0.52,0.5 -1.25,0.5 -0.76,0 -1.28,-0.5 -0.52,-0.5 -0.52,-1.2 0,-0.7 0.52,-1.1 0.52,-0.5 1.28,-0.5 z" />
    <path
       id="path4154"
       style="font-style:normal;font-variant:normal;font-weight:500;font-stretch:normal;font-family:Dosis;-inkscape-font-specification:'Dosis Medium';fill:#ffffff;fill-opacity:1"
       d="m 79.04,124.7 q -1.8,0 -3.11,-0.5 -1.28,-0.5 -2.15,-1.4 -0.83,-0.9 -1.24,-2.1 -0.42,-1.3 -0.42,-2.7 l 0,-3.4 q 0,-1.4 0.42,-2.6 0.41,-1.3 1.24,-2.2 0.87,-0.9 2.15,-1.4 1.31,-0.5 3.08,-0.5 1.14,0 2.07,0.2 0.94,0.2 1.59,0.6 0.7,0.3 1.04,0.7 0.38,0.5 0.38,0.8 0,0.5 -0.34,1 -0.35,0.5 -0.87,0.5 -0.27,0 -0.55,-0.2 -0.24,-0.2 -0.66,-0.4 -0.38,-0.3 -0.97,-0.4 -0.59,-0.3 -1.49,-0.3 -2.14,0 -3.18,1.2 -1.04,1 -1.04,3 l 0,3.4 q 0,2 1.04,3.1 1.04,1 3.22,1 0.93,0 1.52,-0.1 0.62,-0.2 1,-0.5 0.42,-0.2 0.7,-0.4 0.27,-0.2 0.55,-0.2 0.59,0 0.93,0.5 0.35,0.4 0.35,0.9 0,0.4 -0.38,0.8 -0.38,0.5 -1.07,0.8 -0.69,0.4 -1.66,0.6 -0.97,0.2 -2.15,0.2 z" />
    <path
       id="path4156"
       style="font-style:normal;font-variant:normal;font-weight:500;font-stretch:normal;font-family:Dosis;-inkscape-font-specification:'Dosis Medium';fill:#ffffff;fill-opacity:1"
       d="m 92.12,107.9 q 1.8,0 3.04,0.5 1.28,0.6 2.08,1.5 0.79,1 1.14,2.2 0.35,1.2 0.35,2.5 l 0,8.8 q 0,0.5 -0.42,0.8 -0.38,0.3 -1,0.3 -0.59,0 -0.97,-0.3 -0.35,-0.3 -0.35,-0.8 l 0,-1.4 q -0.9,1.1 -2.18,1.9 -1.28,0.8 -3.04,0.8 -0.97,0 -1.84,-0.2 -0.83,-0.3 -1.48,-0.9 -0.63,-0.6 -1.01,-1.4 -0.34,-0.9 -0.34,-2.1 0,-1.4 0.59,-2.3 0.58,-1 1.66,-1.5 1.07,-0.6 2.56,-0.8 1.48,-0.2 3.28,-0.2 l 1.66,0 0,-0.7 q 0,-0.8 -0.2,-1.5 -0.21,-0.8 -0.66,-1.4 -0.45,-0.6 -1.18,-1 -0.72,-0.4 -1.76,-0.4 -0.9,0 -1.52,0.2 -0.63,0.1 -1.04,0.3 -0.42,0.2 -0.69,0.4 -0.28,0.1 -0.52,0.1 -0.52,0 -0.8,-0.5 -0.27,-0.5 -0.27,-0.9 0,-0.5 0.44,-0.8 0.45,-0.4 1.15,-0.7 0.72,-0.2 1.59,-0.4 0.86,-0.1 1.73,-0.1 z m 3.73,9.2 -1.21,0 q -1.1,0 -2.14,0.1 -1.01,0.1 -1.8,0.3 -0.76,0.3 -1.25,0.9 -0.45,0.5 -0.45,1.4 0,1.4 0.77,2 0.76,0.6 1.9,0.6 0.72,0 1.49,-0.3 0.76,-0.3 1.34,-0.9 0.59,-0.5 0.97,-1.1 0.38,-0.6 0.38,-1.2 l 0,-1.8 z" />
    <path
       id="path4158"
       style="font-style:normal;font-variant:normal;font-weight:500;font-stretch:normal;font-family:Dosis;-inkscape-font-specification:'Dosis Medium';fill:#ffffff;fill-opacity:1"
       d="m 105.5,123.4 q 0,0.4 -0.4,0.7 -0.4,0.4 -1,0.4 -0.7,0 -1.1,-0.4 -0.4,-0.3 -0.4,-0.7 l 0,-14.3 q 0,-0.5 0.4,-0.8 0.4,-0.2 1.1,-0.2 0.5,0 0.9,0.2 0.4,0.3 0.4,0.8 l 0,1.4 q 0.5,-1 1.7,-1.8 1.1,-0.8 2.9,-0.8 1.3,0 2.4,0.5 1.1,0.5 1.9,1.4 0.8,0.9 1.3,2.1 0.5,1.2 0.5,2.6 l 0,8.9 q 0,0.5 -0.4,0.8 -0.5,0.3 -1.1,0.3 -0.5,0 -0.9,-0.3 -0.5,-0.3 -0.5,-0.8 l 0,-8.9 q 0,-0.8 -0.3,-1.5 -0.3,-0.7 -0.8,-1.3 -0.6,-0.6 -1.3,-0.9 -0.7,-0.4 -1.5,-0.4 -0.7,0 -1.4,0.3 -0.7,0.3 -1.2,0.8 -0.5,0.5 -0.9,1.3 -0.3,0.8 -0.3,1.7 l 0,8.9 z" />
    <path
       id="path4160"
       style="font-style:normal;font-variant:normal;font-weight:500;font-stretch:normal;font-family:Dosis;-inkscape-font-specification:'Dosis Medium';fill:#ffffff;fill-opacity:1"
       d="m 134.7,114.3 5.8,8.3 q 0.1,0.3 0.1,0.5 0,0.6 -0.5,1 -0.5,0.5 -1.1,0.5 -0.4,0 -0.8,-0.5 l -5.5,-8 -2.8,2.5 0,4.8 q 0,0.4 -0.5,0.7 -0.4,0.4 -1,0.4 -0.6,0 -1,-0.4 -0.4,-0.3 -0.4,-0.7 l 0,-24.23 q 0,-0.45 0.4,-0.73 0.4,-0.27 1,-0.27 0.6,0 1,0.27 0.5,0.28 0.5,0.73 l 0,16.23 7.9,-7.2 q 0.3,-0.2 0.6,-0.2 0.5,0 1,0.4 0.4,0.4 0.4,0.9 0,0.5 -0.3,0.7 l -4.8,4.3 z" />
    <path
       id="path4162"
       style="font-style:normal;font-variant:normal;font-weight:500;font-stretch:normal;font-family:Dosis;-inkscape-font-specification:'Dosis Medium';fill:#ffffff;fill-opacity:1"
       d="m 144.5,108.1 q 0.6,0 1,0.2 0.5,0.3 0.5,0.8 l 0,14.3 q 0,0.4 -0.5,0.7 -0.4,0.4 -1,0.4 -0.6,0 -1,-0.4 -0.4,-0.3 -0.4,-0.7 l 0,-14.3 q 0,-0.5 0.4,-0.8 0.4,-0.2 1,-0.2 z m 0,-7.8 q 0.8,0 1.3,0.5 0.5,0.4 0.5,1.1 0,0.7 -0.5,1.2 -0.5,0.5 -1.3,0.5 -0.7,0 -1.2,-0.5 -0.6,-0.5 -0.6,-1.2 0,-0.7 0.6,-1.1 0.5,-0.5 1.2,-0.5 z" />
    <path
       id="path4164"
       style="font-style:normal;font-variant:normal;font-weight:500;font-stretch:normal;font-family:Dosis;-inkscape-font-specification:'Dosis Medium';fill:#ffffff;fill-opacity:1"
       d="m 152.9,119.2 q 0,1.5 0.6,2.1 0.6,0.6 2.2,0.6 l 1.1,0 q 0.6,0 0.9,0.4 0.4,0.4 0.4,0.9 0,0.5 -0.4,0.9 -0.3,0.4 -0.9,0.4 l -1.1,0 q -2.8,0 -4.2,-1.3 -1.5,-1.2 -1.5,-4 l 0,-17.8 q 0,-0.4 0.5,-0.7 0.4,-0.3 0.9,-0.3 0.6,0 1,0.3 0.5,0.3 0.5,0.7 l 0,6.7 4.3,0 q 0.4,0 0.7,0.3 0.2,0.4 0.2,0.8 0,0.5 -0.2,0.8 -0.3,0.3 -0.7,0.3 l -4.3,0 0,8.9 z" />
    <path
       id="path4166"
       style="font-style:normal;font-variant:normal;font-weight:500;font-stretch:normal;font-family:Dosis;-inkscape-font-specification:'Dosis Medium';fill:#ffffff;fill-opacity:1"
       d="m 166.9,124.7 q -1.8,0 -3.1,-0.5 -1.3,-0.5 -2.2,-1.4 -0.8,-0.9 -1.2,-2.1 -0.4,-1.3 -0.4,-2.7 l 0,-3.4 q 0,-1.4 0.4,-2.6 0.4,-1.3 1.2,-2.2 0.9,-0.9 2.2,-1.4 1.3,-0.5 3,-0.5 1.2,0 2.1,0.2 1,0.2 1.6,0.6 0.7,0.3 1.1,0.7 0.3,0.5 0.3,0.8 0,0.5 -0.3,1 -0.4,0.5 -0.9,0.5 -0.3,0 -0.5,-0.2 -0.3,-0.2 -0.7,-0.4 -0.4,-0.3 -1,-0.4 -0.5,-0.3 -1.4,-0.3 -2.2,0 -3.2,1.2 -1.1,1 -1.1,3 l 0,3.4 q 0,2 1.1,3.1 1,1 3.2,1 0.9,0 1.5,-0.1 0.6,-0.2 1,-0.5 0.4,-0.2 0.7,-0.4 0.3,-0.2 0.6,-0.2 0.5,0 0.9,0.5 0.3,0.4 0.3,0.9 0,0.4 -0.3,0.8 -0.4,0.5 -1.1,0.8 -0.7,0.4 -1.7,0.6 -0.9,0.2 -2.1,0.2 z" />
    <path
       id="path4168"
       style="font-style:normal;font-variant:normal;font-weight:500;font-stretch:normal;font-family:Dosis;-inkscape-font-specification:'Dosis Medium';fill:#ffffff;fill-opacity:1"
       d="m 177.9,123.4 q 0,0.4 -0.4,0.7 -0.5,0.4 -1,0.4 -0.7,0 -1.1,-0.4 -0.4,-0.3 -0.4,-0.7 l 0,-24.23 q 0,-0.45 0.4,-0.73 0.4,-0.27 1.1,-0.27 0.5,0 1,0.27 0.4,0.28 0.4,0.73 l 0,11.33 q 0.5,-1 1.7,-1.8 1.1,-0.8 2.8,-0.8 1.3,0 2.4,0.5 1.1,0.5 1.9,1.4 0.8,0.9 1.3,2.1 0.5,1.2 0.5,2.6 l 0,8.9 q 0,0.5 -0.4,0.8 -0.5,0.3 -1.1,0.3 -0.4,0 -0.9,-0.3 -0.5,-0.3 -0.5,-0.8 l 0,-8.9 q 0,-0.8 -0.3,-1.5 -0.3,-0.7 -0.8,-1.3 -0.6,-0.6 -1.3,-0.9 -0.7,-0.4 -1.5,-0.4 -0.7,0 -1.4,0.3 -0.7,0.3 -1.2,0.8 -0.5,0.5 -0.9,1.3 -0.3,0.8 -0.3,1.7 l 0,8.9 z" />
    <path
       id="path4170"
       style="font-style:normal;font-variant:normal;font-weight:500;font-stretch:normal;font-family:Dosis;-inkscape-font-specification:'Dosis Medium';fill:#ffffff;fill-opacity:1"
       d="m 198.7,107.9 q 1.3,0 2.5,0.4 1.2,0.5 2.1,1.4 1,0.8 1.5,2 0.5,1.1 0.5,2.5 0,1.1 -0.2,1.6 -0.3,0.6 -0.7,0.9 -0.4,0.3 -1,0.4 -0.5,0 -1.1,0 l -7.6,0 0,1 q 0,2 1.3,3.1 1.4,1.1 3.6,1.1 1,0 1.6,-0.2 0.7,-0.2 1.1,-0.4 0.5,-0.3 0.8,-0.5 0.4,-0.2 0.7,-0.2 0.5,0 0.8,0.5 0.4,0.4 0.4,0.8 0,0.3 -0.4,0.7 -0.4,0.5 -1.1,0.8 -0.7,0.4 -1.8,0.7 -1,0.2 -2.2,0.2 -1.7,0 -3.1,-0.4 -1.4,-0.5 -2.4,-1.4 -1,-0.9 -1.6,-2.1 -0.6,-1.3 -0.6,-2.8 l 0,-3.6 q 0,-1.3 0.5,-2.5 0.6,-1.2 1.5,-2.1 1,-0.9 2.2,-1.4 1.3,-0.5 2.7,-0.5 z m 2.4,7.3 q 0.9,0 1.2,-0.3 0.3,-0.2 0.3,-0.9 0,-0.7 -0.3,-1.4 -0.3,-0.7 -0.8,-1.3 -0.5,-0.5 -1.2,-0.8 -0.8,-0.4 -1.6,-0.4 -0.9,0 -1.6,0.3 -0.7,0.3 -1.2,0.8 -0.6,0.5 -0.9,1.2 -0.3,0.7 -0.3,1.5 l 0,1.3 6.4,0 z" />
    <path
       id="path4172"
       style="font-style:normal;font-variant:normal;font-weight:500;font-stretch:normal;font-family:Dosis;-inkscape-font-specification:'Dosis Medium';fill:#ffffff;fill-opacity:1"
       d="m 211.4,123.4 q 0,0.4 -0.5,0.7 -0.4,0.4 -1,0.4 -0.6,0 -1,-0.4 -0.4,-0.3 -0.4,-0.7 l 0,-14.3 q 0,-0.5 0.4,-0.8 0.4,-0.2 1,-0.2 0.6,0 0.9,0.2 0.5,0.3 0.5,0.8 l 0,1.4 q 0.5,-1 1.7,-1.8 1.1,-0.8 2.9,-0.8 1.2,0 2.3,0.5 1.2,0.5 2,1.4 0.8,0.9 1.3,2.1 0.5,1.2 0.5,2.6 l 0,8.9 q 0,0.5 -0.5,0.8 -0.4,0.3 -1,0.3 -0.5,0 -0.9,-0.3 -0.5,-0.3 -0.5,-0.8 l 0,-8.9 q 0,-0.8 -0.3,-1.5 -0.3,-0.7 -0.9,-1.3 -0.5,-0.6 -1.2,-0.9 -0.7,-0.4 -1.5,-0.4 -0.7,0 -1.4,0.3 -0.7,0.3 -1.2,0.8 -0.5,0.5 -0.9,1.3 -0.3,0.8 -0.3,1.7 l 0,8.9 z" />
    <path
       id="path4174"
       style="font-style:normal;font-variant:normal;font-weight:500;font-stretch:normal;font-family:Dosis;-inkscape-font-specification:'Dosis Medium';fill:#ffffff;fill-opacity:1"
       d="m 240,124.8 q -1.9,0 -3.5,-0.6 -1.4,-0.6 -2.5,-1.6 -1,-1 -1.6,-2.4 -0.6,-1.3 -0.6,-2.8 0,-1.3 0.4,-2.4 0.4,-1.1 1.1,-1.9 0.6,-0.9 1.4,-1.6 0.8,-0.6 1.7,-1.1 -0.5,-0.6 -1,-1.2 -0.4,-0.7 -0.8,-1.3 -0.4,-0.8 -0.6,-1.6 -0.3,-0.8 -0.3,-1.7 0,-1.5 0.6,-2.6 0.5,-1.1 1.3,-1.9 0.9,-0.72 2.1,-1.1 1.2,-0.42 2.6,-0.42 1.4,0 2.5,0.42 1.2,0.38 1.9,0.93 0.8,0.57 1.2,1.17 0.3,0.6 0.3,1 0,0.6 -0.4,1 -0.4,0.4 -0.9,0.4 -0.4,0 -0.8,-0.4 -0.3,-0.4 -0.7,-0.8 -0.5,-0.5 -1.2,-0.9 -0.7,-0.4 -1.8,-0.4 -1.7,0 -2.8,1 -1,1 -1,2.7 0,0.9 0.3,1.7 0.3,0.8 0.8,1.5 0.5,0.7 1.1,1.4 0.6,0.7 1.1,1.3 l 6.6,7.2 q 0.4,-0.8 0.6,-1.6 0.2,-0.8 0.3,-1.6 0.1,-0.7 0.1,-1.4 0.1,-0.7 0.1,-1.3 0.1,-0.5 0.3,-0.8 0.3,-0.2 1,-0.2 0.7,0 1,0.4 0.2,0.3 0.2,1.1 0,0.5 0,1.3 -0.1,0.9 -0.3,1.9 -0.2,0.9 -0.6,2 -0.3,1 -0.9,2.1 l 2.9,3 q 0.5,0.5 0.5,0.8 0,0.5 -0.5,0.9 -0.4,0.3 -0.9,0.3 -0.4,0 -0.7,-0.3 l -2.7,-2.8 q -1.1,1.4 -2.8,2.3 -1.7,0.9 -4.1,0.9 z m 0.4,-2.6 q 1.7,0 2.9,-0.6 1.1,-0.7 1.9,-1.8 l -7.1,-7.6 q -0.6,0.4 -1.2,0.8 -0.5,0.4 -1,1 -0.5,0.6 -0.8,1.4 -0.3,0.7 -0.3,1.7 0,1.1 0.3,2 0.4,0.9 1.1,1.6 0.7,0.7 1.8,1.1 1,0.4 2.4,0.4 z" />
    <path
       id="path4176"
       style="font-style:normal;font-variant:normal;font-weight:500;font-stretch:normal;font-family:Dosis;-inkscape-font-specification:'Dosis Medium';fill:#ffffff;fill-opacity:1"
       d="m 267.4,124.7 q -1.8,0 -3.1,-0.5 -1.3,-0.5 -2.1,-1.4 -0.9,-0.9 -1.3,-2.1 -0.4,-1.3 -0.4,-2.7 l 0,-3.4 q 0,-1.4 0.4,-2.6 0.4,-1.3 1.3,-2.2 0.8,-0.9 2.1,-1.4 1.3,-0.5 3.1,-0.5 1.1,0 2.1,0.2 0.9,0.2 1.6,0.6 0.6,0.3 1,0.7 0.4,0.5 0.4,0.8 0,0.5 -0.4,1 -0.3,0.5 -0.8,0.5 -0.3,0 -0.6,-0.2 -0.2,-0.2 -0.7,-0.4 -0.3,-0.3 -0.9,-0.4 -0.6,-0.3 -1.5,-0.3 -2.2,0 -3.2,1.2 -1,1 -1,3 l 0,3.4 q 0,2 1,3.1 1,1 3.2,1 1,0 1.6,-0.1 0.6,-0.2 1,-0.5 0.4,-0.2 0.6,-0.4 0.3,-0.2 0.6,-0.2 0.6,0 0.9,0.5 0.4,0.4 0.4,0.9 0,0.4 -0.4,0.8 -0.4,0.5 -1.1,0.8 -0.7,0.4 -1.6,0.6 -1,0.2 -2.2,0.2 z" />
    <path
       id="path4178"
       style="font-style:normal;font-variant:normal;font-weight:500;font-stretch:normal;font-family:Dosis;-inkscape-font-specification:'Dosis Medium';fill:#ffffff;fill-opacity:1"
       d="m 280.5,107.9 q 1.8,0 3,0.5 1.3,0.6 2.1,1.5 0.8,1 1.2,2.2 0.3,1.2 0.3,2.5 l 0,8.8 q 0,0.5 -0.4,0.8 -0.4,0.3 -1,0.3 -0.6,0 -1,-0.3 -0.3,-0.3 -0.3,-0.8 l 0,-1.4 q -0.9,1.1 -2.2,1.9 -1.3,0.8 -3.1,0.8 -0.9,0 -1.8,-0.2 -0.8,-0.3 -1.5,-0.9 -0.6,-0.6 -1,-1.4 -0.3,-0.9 -0.3,-2.1 0,-1.4 0.6,-2.3 0.6,-1 1.6,-1.5 1.1,-0.6 2.6,-0.8 1.5,-0.2 3.3,-0.2 l 1.6,0 0,-0.7 q 0,-0.8 -0.2,-1.5 -0.2,-0.8 -0.6,-1.4 -0.5,-0.6 -1.2,-1 -0.7,-0.4 -1.8,-0.4 -0.9,0 -1.5,0.2 -0.6,0.1 -1,0.3 -0.4,0.2 -0.7,0.4 -0.3,0.1 -0.5,0.1 -0.6,0 -0.8,-0.5 -0.3,-0.5 -0.3,-0.9 0,-0.5 0.4,-0.8 0.5,-0.4 1.2,-0.7 0.7,-0.2 1.6,-0.4 0.8,-0.1 1.7,-0.1 z m 3.7,9.2 -1.2,0 q -1.1,0 -2.1,0.1 -1,0.1 -1.8,0.3 -0.8,0.3 -1.3,0.9 -0.4,0.5 -0.4,1.4 0,1.4 0.7,2 0.8,0.6 1.9,0.6 0.8,0 1.5,-0.3 0.8,-0.3 1.4,-0.9 0.6,-0.5 1,-1.1 0.3,-0.6 0.3,-1.2 l 0,-1.8 z" />
    <path
       id="path4180"
       style="font-style:normal;font-variant:normal;font-weight:500;font-stretch:normal;font-family:Dosis;-inkscape-font-specification:'Dosis Medium';fill:#ffffff;fill-opacity:1"
       d="m 293.8,119.2 q 0,1.5 0.6,2.1 0.7,0.6 2.3,0.6 l 1.1,0 q 0.6,0 0.9,0.4 0.3,0.4 0.3,0.9 0,0.5 -0.3,0.9 -0.3,0.4 -0.9,0.4 l -1.1,0 q -2.8,0 -4.3,-1.3 -1.4,-1.2 -1.4,-4 l 0,-17.8 q 0,-0.4 0.4,-0.7 0.5,-0.3 1,-0.3 0.5,0 1,0.3 0.4,0.3 0.4,0.7 l 0,6.7 4.4,0 q 0.4,0 0.6,0.3 0.2,0.4 0.2,0.8 0,0.5 -0.2,0.8 -0.2,0.3 -0.6,0.3 l -4.4,0 0,8.9 z" />
    <path
       id="path4182"
       style="font-style:normal;font-variant:normal;font-weight:500;font-stretch:normal;font-family:Dosis;-inkscape-font-specification:'Dosis Medium';fill:#ffffff;fill-opacity:1"
       d="m 307.8,107.9 q 1.3,0 2.5,0.4 1.2,0.5 2.1,1.4 0.9,0.8 1.4,2 0.6,1.1 0.6,2.5 0,1.1 -0.3,1.6 -0.2,0.6 -0.7,0.9 -0.4,0.3 -0.9,0.4 -0.6,0 -1.2,0 l -7.6,0 0,1 q 0,2 1.4,3.1 1.4,1.1 3.6,1.1 0.9,0 1.6,-0.2 0.6,-0.2 1.1,-0.4 0.5,-0.3 0.8,-0.5 0.3,-0.2 0.6,-0.2 0.6,0 0.9,0.5 0.3,0.4 0.3,0.8 0,0.3 -0.4,0.7 -0.3,0.5 -1.1,0.8 -0.7,0.4 -1.7,0.7 -1,0.2 -2.2,0.2 -1.7,0 -3.2,-0.4 -1.3,-0.5 -2.4,-1.4 -1,-0.9 -1.6,-2.1 -0.5,-1.3 -0.5,-2.8 l 0,-3.6 q 0,-1.3 0.5,-2.5 0.5,-1.2 1.5,-2.1 0.9,-0.9 2.2,-1.4 1.2,-0.5 2.7,-0.5 z m 2.3,7.3 q 0.9,0 1.3,-0.3 0.3,-0.2 0.3,-0.9 0,-0.7 -0.3,-1.4 -0.3,-0.7 -0.8,-1.3 -0.6,-0.5 -1.3,-0.8 -0.7,-0.4 -1.6,-0.4 -0.8,0 -1.5,0.3 -0.7,0.3 -1.3,0.8 -0.5,0.5 -0.8,1.2 -0.4,0.7 -0.4,1.5 l 0,1.3 6.4,0 z" />
    <path
       id="path4184"
       style="font-style:normal;font-variant:normal;font-weight:500;font-stretch:normal;font-family:Dosis;-inkscape-font-specification:'Dosis Medium';fill:#ffffff;fill-opacity:1"
       d="m 324.8,110.4 q -0.8,0 -1.6,0.4 -0.8,0.3 -1.4,1 -0.6,0.7 -1,1.6 -0.4,1 -0.4,2.1 l 0,7.9 q 0,0.4 -0.4,0.7 -0.4,0.4 -1,0.4 -0.6,0 -1,-0.4 -0.4,-0.3 -0.4,-0.7 l 0,-14.3 q 0,-0.5 0.4,-0.8 0.4,-0.2 1,-0.2 0.5,0 0.9,0.2 0.4,0.3 0.4,0.8 l 0,1.6 q 0.6,-1.1 1.7,-1.9 1.2,-0.9 2.8,-0.9 l 1.2,0 q 0.5,0 0.8,0.4 0.3,0.4 0.3,0.9 0,0.5 -0.3,0.9 -0.3,0.3 -0.8,0.3 l -1.2,0 z" />
    <path
       id="path4186"
       style="font-style:normal;font-variant:normal;font-weight:500;font-stretch:normal;font-family:Dosis;-inkscape-font-specification:'Dosis Medium';fill:#ffffff;fill-opacity:1"
       d="m 330.9,108.1 q 0.6,0 1,0.2 0.4,0.3 0.4,0.8 l 0,14.3 q 0,0.4 -0.4,0.7 -0.4,0.4 -1,0.4 -0.6,0 -1,-0.4 -0.4,-0.3 -0.4,-0.7 l 0,-14.3 q 0,-0.5 0.4,-0.8 0.4,-0.2 1,-0.2 z m 0,-7.8 q 0.7,0 1.2,0.5 0.6,0.4 0.6,1.1 0,0.7 -0.6,1.2 -0.5,0.5 -1.2,0.5 -0.8,0 -1.3,-0.5 -0.5,-0.5 -0.5,-1.2 0,-0.7 0.5,-1.1 0.5,-0.5 1.3,-0.5 z" />
    <path
       id="path4188"
       style="font-style:normal;font-variant:normal;font-weight:500;font-stretch:normal;font-family:Dosis;-inkscape-font-specification:'Dosis Medium';fill:#ffffff;fill-opacity:1"
       d="m 339.3,123.4 q 0,0.4 -0.5,0.7 -0.4,0.4 -1,0.4 -0.6,0 -1,-0.4 -0.4,-0.3 -0.4,-0.7 l 0,-14.3 q 0,-0.5 0.4,-0.8 0.4,-0.2 1,-0.2 0.6,0 0.9,0.2 0.5,0.3 0.5,0.8 l 0,1.4 q 0.5,-1 1.7,-1.8 1.1,-0.8 2.9,-0.8 1.2,0 2.3,0.5 1.2,0.5 2,1.4 0.8,0.9 1.3,2.1 0.5,1.2 0.5,2.6 l 0,8.9 q 0,0.5 -0.5,0.8 -0.4,0.3 -1,0.3 -0.5,0 -0.9,-0.3 -0.5,-0.3 -0.5,-0.8 l 0,-8.9 q 0,-0.8 -0.3,-1.5 -0.3,-0.7 -0.9,-1.3 -0.5,-0.6 -1.2,-0.9 -0.7,-0.4 -1.5,-0.4 -0.7,0 -1.4,0.3 -0.7,0.3 -1.2,0.8 -0.5,0.5 -0.9,1.3 -0.3,0.8 -0.3,1.7 l 0,8.9 z" />
    <path
       id="path4190"
       style="font-style:normal;font-variant:normal;font-weight:500;font-stretch:normal;font-family:Dosis;-inkscape-font-specification:'Dosis Medium';fill:#ffffff;fill-opacity:1"
       d="m 359.5,120.4 q -1.4,0 -2.5,-0.5 -0.4,0.2 -0.6,0.5 -0.3,0.3 -0.3,0.7 0,0.7 0.8,1 0.8,0.3 2,0.5 1.2,0.1 2.5,0.3 1.4,0.2 2.6,0.6 1.2,0.5 2,1.3 0.8,0.9 0.8,2.5 0,1.3 -0.6,2.2 -0.5,1 -1.5,1.6 -0.9,0.7 -2.2,1 -1.3,0.3 -2.8,0.3 -1.5,0 -2.8,-0.4 -1.3,-0.3 -2.3,-0.9 -0.9,-0.6 -1.5,-1.4 -0.5,-0.9 -0.5,-2 0,-1.4 0.8,-2.4 0.9,-0.9 2,-1.4 -0.8,-0.2 -1.3,-0.8 -0.5,-0.5 -0.5,-1.5 0,-0.9 0.5,-1.5 0.5,-0.6 1.2,-1 -0.9,-0.8 -1.4,-1.9 -0.5,-1.1 -0.5,-2.5 l 0,-1.1 q 0,-1.3 0.4,-2.3 0.5,-1.1 1.3,-1.9 0.8,-0.7 1.9,-1.1 1.1,-0.4 2.5,-0.4 1.2,0 2.2,0.3 1.1,0.4 1.9,1 0.5,-1.1 1.1,-1.7 0.6,-0.5 1.2,-0.5 0.6,0 0.9,0.3 0.4,0.3 0.4,0.7 0,0.3 -0.2,0.5 -0.2,0.2 -0.4,0.3 -0.4,0.1 -0.9,0.4 -0.5,0.3 -1,1.1 0.6,0.6 0.8,1.5 0.3,0.8 0.3,1.8 l 0,1.1 q 0,1.2 -0.5,2.3 -0.4,1 -1.3,1.8 -0.8,0.8 -1.9,1.2 -1.2,0.4 -2.6,0.4 z m 3.5,-6.8 q 0,-1.6 -0.9,-2.7 -0.9,-1.1 -2.5,-1.1 -1.7,0 -2.6,1.1 -0.8,1.1 -0.8,2.7 l 0,1.1 q 0,1.6 0.8,2.7 0.9,1.1 2.6,1.1 1.6,0 2.5,-1.1 0.9,-1 0.9,-2.7 l 0,-1.1 z m 1,13.8 q 0,-1 -0.7,-1.5 -0.6,-0.5 -1.5,-0.8 -0.9,-0.3 -1.9,-0.4 -1,0 -1.9,-0.1 -1.1,0.3 -1.9,1 -0.8,0.7 -0.8,1.8 0,1.3 1.2,2.1 1.2,0.9 3.2,0.9 2,0 3.1,-0.9 1.2,-0.8 1.2,-2.1 z" />
  </g>
</svg>
